<svg width="999" height="981" viewBox="0 0 999 981" fill="none" xmlns="http://www.w3.org/2000/svg">
<path d="M323.433 17.6374C380.345 46.7161 408.036 106.016 416.272 165.349C424.035 221.274 405.403 276.464 365.284 319.135C324.289 362.738 266.958 393.967 204.327 390.776C141.738 387.587 90.1927 349.655 53.1222 303.231C15.2434 255.794 -11.7958 198.098 5.17771 141.375C22.3376 84.03 77.4375 45.8796 137.069 22.6946C197.282 -0.716001 266.294 -11.5567 323.433 17.6374Z" fill="#4643A8" fill-opacity="0.1"/>
<path d="M933.04 878.023C927.885 902.538 932.815 933.135 911.374 946.089C889.401 959.365 861.4 947.436 839.044 934.816C819.888 924.002 807.049 905.665 801.889 884.282C796.932 863.74 801.441 842.959 812.538 824.975C825.103 804.614 841.643 785.654 865.23 781.637C892.6 776.975 925.48 780.313 941.456 803.021C956.686 824.668 938.486 852.121 933.04 878.023Z" fill="#27AE60" fill-opacity="0.1"/>
<path d="M133.645 665.733C151.147 683.656 179.314 696.583 178.148 721.607C176.954 747.251 151.462 763.881 128.537 775.435C108.894 785.335 86.5136 785.801 65.8752 778.191C46.0487 770.881 31.2894 755.571 22.5211 736.345C12.5931 714.576 6.04119 690.283 15.8269 668.449C27.1824 643.113 48.2497 617.649 76.0067 617.009C102.468 616.399 115.153 646.796 133.645 665.733Z" fill="#27AE60" fill-opacity="0.1"/>
<g clip-path="url(#clip0)">
<path d="M487.322 810.761C640.127 810.761 764 686.798 764 533.881C764 380.964 640.127 257 487.322 257C334.517 257 210.644 380.964 210.644 533.881C210.644 686.798 334.517 810.761 487.322 810.761Z" fill="#F2F2F2"/>
<path d="M742.489 800.369C742.489 811.848 591.052 836 404.244 836C217.437 836 66 811.848 66 800.369C66 788.89 217.437 794.431 404.244 794.431C591.052 794.431 742.489 788.89 742.489 800.369Z" fill="#3F3D56"/>
<path opacity="0.1" d="M742.489 800.369C742.489 811.848 591.052 836 404.244 836C217.437 836 66 811.848 66 800.369C66 788.89 217.437 794.431 404.244 794.431C591.052 794.431 742.489 788.89 742.489 800.369Z" fill="black"/>
<path d="M404.244 821.154C591.052 821.154 742.489 811.848 742.489 800.369C742.489 788.89 591.052 779.585 404.244 779.585C217.437 779.585 66 788.89 66 800.369C66 811.848 217.437 821.154 404.244 821.154Z" fill="#3F3D56"/>
<path d="M601.693 701.948C601.693 748.865 631.105 786.83 667.452 786.83L601.693 701.948Z" fill="#3F3D56"/>
<path d="M667.452 786.83C667.452 739.386 700.274 700.995 740.835 700.995L667.452 786.83Z" fill="#27AE60"/>
<path d="M625.519 706.202C625.519 750.768 644.274 786.83 667.452 786.83L625.519 706.202Z" fill="#27AE60"/>
<path d="M667.452 786.83C667.452 726.207 705.389 677.152 752.272 677.152L667.452 786.83Z" fill="#3F3D56"/>
<path d="M653.618 787.428C653.618 787.428 662.944 787.141 665.755 785.138C668.565 783.135 680.1 780.744 680.797 783.956C681.494 787.168 694.812 799.931 684.283 800.016C673.755 800.101 659.819 798.375 657.014 796.665C654.209 794.955 653.618 787.428 653.618 787.428Z" fill="#A8A8A8"/>
<path opacity="0.2" d="M684.471 798.898C673.942 798.983 660.007 797.257 657.202 795.547C655.066 794.245 654.215 789.572 653.93 787.416C653.732 787.425 653.618 787.428 653.618 787.428C653.618 787.428 654.209 794.955 657.014 796.665C659.819 798.375 673.755 800.101 684.283 800.016C687.322 799.992 688.372 798.91 688.315 797.307C687.892 798.275 686.733 798.88 684.471 798.898Z" fill="black"/>
<path d="M490.76 431.677C490.76 431.677 500.249 451.618 496.454 461.114C492.658 470.61 510.687 481.055 510.687 481.055L534.409 467.761V450.668L530.614 443.072C530.614 443.072 515.431 434.525 517.329 421.231C519.227 407.937 490.76 431.677 490.76 431.677Z" fill="#FFB9B9"/>
<path opacity="0.1" d="M490.76 431.677C490.76 431.677 500.249 451.618 496.454 461.114C492.658 470.61 510.687 481.055 510.687 481.055L534.409 467.761V450.668L530.614 443.072C530.614 443.072 515.431 434.525 517.329 421.231C519.227 407.937 490.76 431.677 490.76 431.677Z" fill="black"/>
<path d="M472.731 515.24C472.731 515.24 470.834 536.131 470.834 538.98C470.834 541.828 467.987 551.324 467.987 551.324C467.987 551.324 457.549 599.753 450.907 604.501C444.265 609.249 440.469 638.686 450.907 636.787C461.345 634.887 464.191 609.249 464.191 609.249L485.795 568.424L488.862 519.038L472.731 515.24Z" fill="#FFB9B9"/>
<path d="M480.322 473.458H472.731C472.731 473.458 465.14 519.038 472.731 520.938C480.322 522.837 494.556 522.837 494.556 522.837L480.322 473.458Z" fill="#575A89"/>
<path d="M523.022 766.88L526.818 784.922L534.409 779.224L530.613 763.081L523.022 765.93V766.88Z" fill="#FFB9B9"/>
<path d="M488.862 574.114L483.169 577.913C483.169 577.913 480.322 611.148 486.965 636.787C493.607 662.425 498.351 692.812 498.351 692.812C498.351 692.812 509.738 768.779 512.585 770.678C515.431 772.577 533.46 773.527 534.409 769.728C535.358 765.93 527.767 694.711 527.767 694.711C527.767 694.711 522.074 634.888 526.818 627.291C526.818 627.291 542 692.812 546.745 699.459C546.745 699.459 553.387 771.628 557.182 773.527C560.978 775.426 579.007 776.375 579.956 772.577C580.905 768.779 574.262 687.115 571.416 680.468C568.569 673.82 567.62 575.064 560.978 576.013C554.336 576.963 488.862 574.114 488.862 574.114Z" fill="#2F2E41"/>
<path d="M500.249 440.223C512.302 440.223 522.074 430.445 522.074 418.383C522.074 406.32 512.302 396.542 500.249 396.542C488.196 396.542 478.425 406.32 478.425 418.383C478.425 430.445 488.196 440.223 500.249 440.223Z" fill="#FFB9B9"/>
<path d="M508.789 466.811L504.045 458.265C504.045 458.265 498.351 450.668 495.505 452.568C492.658 454.467 492.658 461.114 492.658 461.114C492.658 461.114 470.834 468.711 472.731 479.156C474.629 489.601 486.965 507.643 486.965 507.643C486.965 507.643 488.862 522.837 486.965 526.635C485.067 530.433 481.271 533.282 484.118 537.081C486.965 540.879 487.914 541.828 486.965 546.576C486.016 551.324 484.118 553.223 486.016 555.123C487.914 557.022 485.067 576.963 483.169 577.913C481.271 578.862 543.898 588.358 548.642 585.509C553.387 582.661 566.671 582.661 565.722 579.812C564.773 576.963 560.978 559.871 560.978 557.022C560.978 554.173 560.978 541.828 560.029 540.879C559.08 539.929 560.978 525.686 560.978 525.686L556.233 485.803L571.416 462.063C571.416 462.063 567.62 448.769 549.591 446.87C531.562 444.971 526.575 440.223 526.575 440.223C526.575 440.223 524.92 448.769 521.125 450.668C517.329 452.568 508.789 466.811 508.789 466.811Z" fill="#575A89"/>
<path d="M578.058 492.45L583.751 535.181L571.416 596.904C571.416 596.904 566.671 632.039 557.182 631.089C547.693 630.14 557.182 593.106 557.182 593.106L564.773 535.181C564.773 535.181 552.438 505.744 555.285 501.946C558.131 498.148 578.058 492.45 578.058 492.45Z" fill="#FFB9B9"/>
<path d="M531.562 776.375C531.562 776.375 519.227 769.728 516.38 770.678C513.534 771.628 510.687 784.922 510.687 784.922C510.687 784.922 488.862 801.065 503.096 804.863C517.329 808.661 523.022 800.115 523.022 800.115C523.022 800.115 537.256 792.518 537.256 790.619C537.256 788.72 535.358 776.375 535.358 776.375H531.562Z" fill="#2F2E41"/>
<path d="M560.029 771.627C560.029 771.627 554.336 802.964 558.131 804.863C561.927 806.762 578.058 809.611 579.956 804.863C581.853 800.115 581.853 788.72 580.905 784.922C579.956 781.123 577.109 771.627 577.109 771.627H560.029Z" fill="#2F2E41"/>
<path d="M496.442 383.837C495.593 383.582 494.691 383.555 493.828 383.758C492.739 384.114 492.024 385.121 491.193 385.91C489.017 387.978 485.908 388.625 483.071 389.604C480.234 390.584 477.25 392.317 476.54 395.235C476.369 396.409 476.265 397.592 476.231 398.778C475.808 402.22 473.185 405.319 473.654 408.755C473.96 411 475.559 412.904 475.888 415.146C476.254 417.645 474.992 420.246 475.696 422.672C476.385 425.049 478.719 426.498 480.868 427.722C481.79 421.866 482.897 416.043 484.19 410.253C484.337 409.207 484.744 408.215 485.373 407.367C487.281 405.204 491.023 406.436 493.499 404.958C494.44 404.397 495.138 403.47 496.126 402.998C498.986 401.63 502.08 404.661 505.25 404.689C506.649 404.702 508.184 404.146 509.366 404.895C509.888 405.277 510.302 405.787 510.569 406.376C511.699 408.498 512.32 410.883 513.638 412.893C514.955 414.904 517.315 416.544 519.651 415.981C519.294 414.168 520.712 412.537 521.28 410.779C522.257 407.754 520.66 404.471 521.045 401.315C521.406 398.353 523.335 394.875 521.219 392.772C520.496 392.161 519.638 391.73 518.716 391.514C511.227 389.136 504.309 385.15 496.442 383.837Z" fill="#2F2E41"/>
<path d="M561.927 458.265L571.416 462.063C571.416 462.063 583.751 501.946 580.905 501.946C578.058 501.946 552.438 508.593 552.438 505.744C552.438 502.895 554.336 458.265 561.927 458.265Z" fill="#575A89"/>
<path d="M411.662 377.254H117.923V473.754H129.05V498.992L154.27 473.754H411.662V377.254Z" fill="#3F3D56"/>
<path d="M411.662 637.061H117.923V733.561H129.05V758.8L154.27 733.561H411.662V637.061Z" fill="#3F3D56"/>
<path d="M169.847 507.9H463.585V604.4H452.459V629.638L427.239 604.4H169.847V507.9Z" fill="#3F3D56"/>
<path opacity="0.3" d="M377.541 393.214H152.045V402.121H377.541V393.214Z" fill="#6C63FF"/>
<path opacity="0.3" d="M264.793 410.287H152.045V419.194H264.793V410.287Z" fill="#6C63FF"/>
<path opacity="0.3" d="M164.655 457.794C171.619 457.794 177.265 452.145 177.265 445.175C177.265 438.206 171.619 432.556 164.655 432.556C157.69 432.556 152.045 438.206 152.045 445.175C152.045 452.145 157.69 457.794 164.655 457.794Z" fill="#6C63FF"/>
<path d="M422.047 522.375H196.55V531.283H422.047V522.375Z" fill="#27AE60"/>
<path d="M309.299 539.448H196.55V548.356H309.299V539.448Z" fill="#27AE60"/>
<path d="M209.16 586.956C216.125 586.956 221.77 581.306 221.77 574.337C221.77 567.367 216.125 561.717 209.16 561.717C202.196 561.717 196.55 567.367 196.55 574.337C196.55 581.306 202.196 586.956 209.16 586.956Z" fill="#27AE60"/>
<path opacity="0.3" d="M377.541 653.021H152.045V661.929H377.541V653.021Z" fill="#6C63FF"/>
<path opacity="0.3" d="M264.793 670.094H152.045V679.002H264.793V670.094Z" fill="#6C63FF"/>
<path opacity="0.3" d="M164.655 717.602C171.619 717.602 177.265 711.952 177.265 704.983C177.265 698.013 171.619 692.364 164.655 692.364C157.69 692.364 152.045 698.013 152.045 704.983C152.045 711.952 157.69 717.602 164.655 717.602Z" fill="#6C63FF"/>
</g>
<defs>
<clipPath id="clip0">
<rect width="698" height="579" fill="white" transform="translate(66 257)"/>
</clipPath>
</defs>
</svg>
