<svg width="83" height="66" viewBox="0 0 83 66" fill="none" xmlns="http://www.w3.org/2000/svg">
<g clip-path="url(#clip0)">
<path d="M68.0275 57.75H14.4301C13.2963 57.75 12.3686 58.6781 12.3686 59.8125V63.9375C12.3686 65.0719 13.2963 66 14.4301 66H68.0275C69.1613 66 70.0889 65.0719 70.0889 63.9375V59.8125C70.0889 58.6781 69.1613 57.75 68.0275 57.75ZM76.2733 16.5C72.859 16.5 70.0889 19.2715 70.0889 22.6875C70.0889 23.6027 70.2951 24.4535 70.6558 25.2398L61.3278 30.8344C59.3437 32.0203 56.7798 31.35 55.6331 29.3391L45.1326 10.957C46.5112 9.82266 47.4131 8.12109 47.4131 6.1875C47.4131 2.77148 44.6431 0 41.2288 0C37.8145 0 35.0445 2.77148 35.0445 6.1875C35.0445 8.12109 35.9464 9.82266 37.3249 10.957L26.8245 29.3391C25.6778 31.35 23.101 32.0203 21.1298 30.8344L11.8146 25.2398C12.1625 24.4664 12.3815 23.6027 12.3815 22.6875C12.3815 19.2715 9.61146 16.5 6.1972 16.5C2.78294 16.5 0 19.2715 0 22.6875C0 26.1035 2.77006 28.875 6.18432 28.875C6.5193 28.875 6.85429 28.8234 7.17639 28.7719L16.4915 53.625H65.9661L75.2812 28.7719C75.6033 28.8234 75.9383 28.875 76.2733 28.875C79.6875 28.875 82.4576 26.1035 82.4576 22.6875C82.4576 19.2715 79.6875 16.5 76.2733 16.5Z" fill="white"/>
</g>
<defs>
<clipPath id="clip0">
<rect width="82.4576" height="66" fill="white"/>
</clipPath>
</defs>
</svg>
