<svg width="990" height="729" viewBox="0 0 990 729" fill="none" xmlns="http://www.w3.org/2000/svg">
<path opacity="0.2" d="M818 641.875H747V603.449H818V641.875ZM750 638.993H815V606.331H750V638.993Z" fill="#6C63FF"/>
<path opacity="0.2" d="M889 639.954H818V601.528H889V639.954ZM821 637.072H886V604.41H821V637.072Z" fill="#6C63FF"/>
<path opacity="0.2" d="M960 639.954H889V601.528H960V639.954ZM892 637.072H957V604.41H892V637.072Z" fill="#6C63FF"/>
<path opacity="0.2" d="M960 601.528H889V563.102H960V601.528ZM892 598.646H957V565.984H892V598.646Z" fill="#6C63FF"/>
<path opacity="0.2" d="M889 601.528H818V563.102H889V601.528ZM821 598.646H886V565.984H821V598.646Z" fill="#6C63FF"/>
<path opacity="0.2" d="M89 639.954H18V601.528H89V639.954ZM21 637.072H86V604.41H21V637.072Z" fill="#6C63FF"/>
<path opacity="0.2" d="M160 639.954H89V601.528H160V639.954ZM92 637.072H157V604.41H92V637.072Z" fill="#6C63FF"/>
<path opacity="0.2" d="M231 639.954H160V601.528H231V639.954ZM163 637.072H228V604.41H163V637.072Z" fill="#6C63FF"/>
<path opacity="0.2" d="M302 641.875H231V603.449H302V641.875ZM234 638.993H299V606.331H234V638.993Z" fill="#6C63FF"/>
<path opacity="0.2" d="M231 601.528H160V563.102H231V601.528ZM163 598.646H228V565.984H163V598.646Z" fill="#6C63FF"/>
<path opacity="0.2" d="M160 601.528H89V563.102H160V601.528ZM92 598.646H157V565.984H92V598.646Z" fill="#6C63FF"/>
<path d="M890.28 521.179C890.28 521.179 877.14 478.305 892.74 446.747C899.374 433.553 901.375 418.647 898.44 404.267C896.992 397.45 894.897 390.774 892.18 384.324" stroke="#535461" stroke-width="2" stroke-miterlimit="10"/>
<path d="M901.9 364.352C901.9 369.607 892 384.843 892 384.843C892 384.843 882.1 369.607 882.1 364.352C882.1 361.829 883.144 359.408 885.001 357.624C886.859 355.84 889.378 354.837 892.005 354.837C894.632 354.837 897.151 355.84 899.009 357.624C900.867 359.408 901.91 361.829 901.91 364.352H901.9Z" fill="#6C63FF"/>
<path d="M918.27 393.489C915.27 397.898 898.36 405.516 898.36 405.516C898.36 405.516 898.67 387.552 901.64 383.143C902.346 382.094 903.261 381.189 904.332 380.479C905.402 379.77 906.608 379.27 907.88 379.008C909.151 378.746 910.464 378.728 911.743 378.953C913.023 379.179 914.243 379.644 915.335 380.323C916.427 381.002 917.369 381.881 918.107 382.909C918.846 383.938 919.366 385.096 919.639 386.317C919.911 387.539 919.931 388.8 919.696 390.029C919.461 391.258 918.976 392.43 918.27 393.479V393.489Z" fill="#6C63FF"/>
<path d="M917.55 443.231C912.67 445.595 894.05 443.962 894.05 443.962C894.05 443.962 903.75 428.591 908.64 426.238C910.984 425.118 913.694 424.936 916.177 425.73C918.661 426.523 920.716 428.229 921.895 430.474C923.073 432.72 923.279 435.322 922.466 437.712C921.654 440.102 919.89 442.087 917.56 443.231H917.55Z" fill="#6C63FF"/>
<path d="M908.19 480.745C903.79 483.867 885.19 485.279 885.19 485.279C885.19 485.279 892.05 468.573 896.45 465.442C897.495 464.699 898.683 464.161 899.944 463.858C901.206 463.556 902.518 463.496 903.804 463.68C905.09 463.865 906.325 464.291 907.44 464.935C908.555 465.578 909.526 466.426 910.3 467.43C911.073 468.434 911.633 469.575 911.948 470.787C912.263 471.999 912.326 473.259 912.133 474.495C911.941 475.73 911.498 476.917 910.828 477.988C910.158 479.059 909.275 479.992 908.23 480.735L908.19 480.745Z" fill="#6C63FF"/>
<path d="M877.57 406.544C881.49 410.204 899.77 413.999 899.77 413.999C899.77 413.999 895.29 396.553 891.37 392.864C889.486 391.107 886.952 390.14 884.325 390.177C881.699 390.213 879.195 391.251 877.365 393.061C875.535 394.872 874.529 397.306 874.567 399.829C874.605 402.352 875.686 404.757 877.57 406.515V406.544Z" fill="#6C63FF"/>
<path d="M867.2 450.542C872.08 452.905 890.7 451.272 890.7 451.272C890.7 451.272 881 435.902 876.11 433.548C874.948 432.977 873.679 432.632 872.377 432.534C871.076 432.435 869.767 432.585 868.526 432.974C867.284 433.363 866.136 433.984 865.145 434.801C864.155 435.619 863.342 436.616 862.754 437.736C862.166 438.856 861.815 440.076 861.72 441.327C861.625 442.578 861.788 443.835 862.2 445.025C862.612 446.215 863.265 447.315 864.122 448.262C864.978 449.209 866.021 449.984 867.19 450.542H867.2Z" fill="#6C63FF"/>
<path d="M863.23 494.646C867.63 497.768 886.23 499.18 886.23 499.18C886.23 499.18 879.41 482.513 875 479.352C873.955 478.609 872.767 478.071 871.505 477.769C870.244 477.467 868.932 477.406 867.646 477.591C866.36 477.775 865.125 478.202 864.01 478.845C862.895 479.488 861.923 480.336 861.15 481.341C860.377 482.345 859.816 483.485 859.502 484.698C859.187 485.91 859.124 487.169 859.317 488.405C859.509 489.64 859.952 490.827 860.622 491.898C861.292 492.969 862.175 493.903 863.22 494.646H863.23Z" fill="#6C63FF"/>
<path opacity="0.25" d="M901.9 364.352C901.9 369.607 892 384.843 892 384.843C892 384.843 882.1 369.607 882.1 364.352C882.1 361.829 883.144 359.408 885.001 357.624C886.859 355.84 889.378 354.837 892.005 354.837C894.632 354.837 897.151 355.84 899.009 357.624C900.867 359.408 901.91 361.829 901.91 364.352H901.9Z" fill="black"/>
<path opacity="0.25" d="M918.27 393.489C915.27 397.898 898.36 405.516 898.36 405.516C898.36 405.516 898.67 387.552 901.64 383.143C902.346 382.094 903.261 381.189 904.332 380.479C905.402 379.77 906.608 379.27 907.88 379.008C909.151 378.746 910.464 378.728 911.743 378.953C913.023 379.179 914.243 379.644 915.335 380.323C916.427 381.002 917.369 381.881 918.107 382.909C918.846 383.938 919.366 385.096 919.639 386.317C919.911 387.539 919.931 388.8 919.696 390.029C919.461 391.258 918.976 392.43 918.27 393.479V393.489Z" fill="black"/>
<path opacity="0.25" d="M917.55 443.231C912.67 445.595 894.05 443.962 894.05 443.962C894.05 443.962 903.75 428.591 908.64 426.238C910.984 425.118 913.694 424.936 916.177 425.73C918.661 426.523 920.716 428.229 921.895 430.474C923.073 432.72 923.279 435.322 922.466 437.712C921.654 440.102 919.89 442.087 917.56 443.231H917.55Z" fill="black"/>
<path opacity="0.25" d="M908.19 480.745C903.79 483.867 885.19 485.279 885.19 485.279C885.19 485.279 892.05 468.573 896.45 465.442C897.495 464.699 898.683 464.161 899.944 463.858C901.206 463.556 902.518 463.496 903.804 463.68C905.09 463.865 906.325 464.291 907.44 464.935C908.555 465.578 909.526 466.426 910.3 467.43C911.073 468.434 911.633 469.575 911.948 470.787C912.263 471.999 912.326 473.259 912.133 474.495C911.941 475.73 911.498 476.917 910.828 477.988C910.158 479.059 909.275 479.992 908.23 480.735L908.19 480.745Z" fill="black"/>
<path opacity="0.25" d="M877.57 406.544C881.49 410.204 899.77 413.999 899.77 413.999C899.77 413.999 895.29 396.553 891.37 392.864C889.486 391.107 886.952 390.14 884.325 390.177C881.699 390.213 879.195 391.251 877.365 393.061C875.535 394.872 874.529 397.306 874.567 399.829C874.605 402.352 875.686 404.757 877.57 406.515V406.544Z" fill="black"/>
<path opacity="0.25" d="M867.2 450.542C872.08 452.905 890.7 451.272 890.7 451.272C890.7 451.272 881 435.902 876.11 433.548C874.948 432.977 873.679 432.632 872.377 432.534C871.076 432.435 869.767 432.585 868.526 432.974C867.284 433.363 866.136 433.984 865.145 434.801C864.155 435.619 863.342 436.616 862.754 437.736C862.166 438.856 861.815 440.076 861.72 441.327C861.625 442.578 861.788 443.835 862.2 445.025C862.612 446.215 863.265 447.315 864.122 448.262C864.978 449.209 866.021 449.984 867.19 450.542H867.2Z" fill="black"/>
<path opacity="0.25" d="M863.23 494.646C867.63 497.768 886.23 499.18 886.23 499.18C886.23 499.18 879.41 482.513 875 479.352C873.955 478.609 872.767 478.071 871.505 477.769C870.244 477.467 868.932 477.406 867.646 477.591C866.36 477.775 865.125 478.202 864.01 478.845C862.895 479.488 861.923 480.336 861.15 481.341C860.377 482.345 859.816 483.485 859.502 484.698C859.187 485.91 859.124 487.169 859.317 488.405C859.509 489.64 859.952 490.827 860.622 491.898C861.292 492.969 862.175 493.903 863.22 494.646H863.23Z" fill="black"/>
<path d="M168.8 521.505C168.8 521.505 155.46 477.997 171.3 446.008C178.035 432.617 180.067 417.488 177.09 402.894C175.621 395.958 173.492 389.166 170.73 382.605" stroke="#535461" stroke-width="2" stroke-miterlimit="10"/>
<path d="M180.59 362.431C180.59 367.763 170.54 383.229 170.54 383.229C170.54 383.229 160.48 367.715 160.48 362.431C160.48 359.87 161.539 357.415 163.424 355.604C165.308 353.794 167.865 352.776 170.53 352.776C173.195 352.776 175.752 353.794 177.636 355.604C179.521 357.415 180.58 359.87 180.58 362.431H180.59Z" fill="#6C63FF"/>
<path d="M197.2 391.923C194.2 396.4 177 404.133 177 404.133C177 404.133 177.31 385.881 180.33 381.433C181.037 380.349 181.962 379.41 183.05 378.672C184.139 377.935 185.369 377.412 186.669 377.135C187.97 376.858 189.314 376.832 190.625 377.059C191.936 377.285 193.187 377.76 194.305 378.456C195.424 379.151 196.387 380.053 197.139 381.109C197.891 382.165 198.417 383.354 198.686 384.607C198.956 385.861 198.963 387.153 198.708 388.409C198.453 389.664 197.94 390.859 197.2 391.923Z" fill="#6C63FF"/>
<path d="M196.47 442.396C191.47 444.797 172.62 443.135 172.62 443.135C172.62 443.135 182.47 427.553 187.42 425.152C189.8 423.999 192.56 423.802 195.092 424.603C197.623 425.405 199.72 427.14 200.92 429.427C202.12 431.713 202.326 434.364 201.491 436.796C200.657 439.229 198.85 441.243 196.47 442.396Z" fill="#6C63FF"/>
<path d="M187 480.466C182.54 483.636 163.62 485.068 163.62 485.068C163.62 485.068 170.62 468.112 175.05 464.894C176.111 464.137 177.317 463.588 178.599 463.279C179.881 462.97 181.213 462.906 182.521 463.092C183.828 463.277 185.085 463.708 186.219 464.361C187.353 465.013 188.342 465.873 189.13 466.892C189.918 467.912 190.489 469.07 190.811 470.301C191.133 471.533 191.199 472.813 191.006 474.069C190.813 475.325 190.364 476.532 189.686 477.622C189.007 478.711 188.111 479.661 187.05 480.418L187 480.466Z" fill="#6C63FF"/>
<path d="M155.89 405.161C159.89 408.878 178.42 412.721 178.42 412.721C178.42 412.721 173.88 395.026 169.9 391.308C168.956 390.41 167.837 389.699 166.606 389.219C165.375 388.739 164.057 388.498 162.728 388.51C161.4 388.522 160.087 388.787 158.865 389.29C157.644 389.793 156.539 390.523 155.613 391.439C154.688 392.355 153.96 393.438 153.474 394.626C152.987 395.813 152.75 397.082 152.776 398.358C152.803 399.634 153.093 400.893 153.629 402.06C154.165 403.228 154.937 404.282 155.9 405.162L155.89 405.161Z" fill="#6C63FF"/>
<path d="M145.37 449.85C150.37 452.252 169.22 450.59 169.22 450.59C169.22 450.59 159.37 435.008 154.42 432.607C153.241 432.036 151.957 431.693 150.641 431.599C149.325 431.505 148.002 431.661 146.748 432.058C145.495 432.455 144.335 433.085 143.335 433.913C142.335 434.741 141.514 435.749 140.92 436.881C140.326 438.014 139.969 439.247 139.871 440.512C139.774 441.776 139.936 443.047 140.349 444.251C140.762 445.455 141.418 446.57 142.28 447.53C143.141 448.491 144.191 449.279 145.37 449.85Z" fill="#6C63FF"/>
<path d="M141.34 494.578C145.8 497.748 164.72 499.18 164.72 499.18C164.72 499.18 157.72 482.224 153.29 479.006C151.147 477.477 148.46 476.829 145.819 477.204C143.179 477.579 140.801 478.946 139.21 481.004C137.619 483.063 136.944 485.645 137.334 488.181C137.724 490.718 139.147 493.002 141.29 494.53L141.34 494.578Z" fill="#6C63FF"/>
<path opacity="0.5" d="M180.59 362.431C180.59 367.763 170.54 383.229 170.54 383.229C170.54 383.229 160.48 367.715 160.48 362.431C160.48 359.87 161.539 357.415 163.424 355.604C165.308 353.794 167.865 352.776 170.53 352.776C173.195 352.776 175.752 353.794 177.636 355.604C179.521 357.415 180.58 359.87 180.58 362.431H180.59Z" fill="white"/>
<path opacity="0.5" d="M197.2 391.923C194.2 396.4 177 404.133 177 404.133C177 404.133 177.31 385.881 180.33 381.433C181.037 380.349 181.962 379.41 183.05 378.672C184.139 377.935 185.369 377.412 186.669 377.135C187.97 376.858 189.314 376.832 190.625 377.059C191.936 377.285 193.187 377.76 194.305 378.456C195.424 379.151 196.387 380.053 197.139 381.109C197.891 382.165 198.417 383.354 198.686 384.607C198.956 385.861 198.963 387.153 198.708 388.409C198.453 389.664 197.94 390.859 197.2 391.923Z" fill="white"/>
<path opacity="0.5" d="M196.47 442.396C191.47 444.797 172.62 443.135 172.62 443.135C172.62 443.135 182.47 427.553 187.42 425.152C189.8 423.999 192.56 423.802 195.092 424.603C197.623 425.405 199.72 427.14 200.92 429.427C202.12 431.713 202.326 434.364 201.491 436.796C200.657 439.229 198.85 441.243 196.47 442.396Z" fill="white"/>
<path opacity="0.5" d="M187 480.466C182.54 483.636 163.62 485.068 163.62 485.068C163.62 485.068 170.62 468.112 175.05 464.894C176.111 464.137 177.317 463.588 178.599 463.279C179.881 462.97 181.213 462.906 182.521 463.092C183.828 463.277 185.085 463.708 186.219 464.361C187.353 465.013 188.342 465.873 189.13 466.892C189.918 467.912 190.489 469.07 190.811 470.301C191.133 471.533 191.199 472.813 191.006 474.069C190.813 475.325 190.364 476.532 189.686 477.622C189.007 478.711 188.111 479.661 187.05 480.418L187 480.466Z" fill="white"/>
<path opacity="0.5" d="M155.89 405.161C159.89 408.878 178.42 412.721 178.42 412.721C178.42 412.721 173.88 395.026 169.9 391.308C168.956 390.41 167.837 389.699 166.606 389.219C165.375 388.739 164.057 388.498 162.728 388.51C161.4 388.522 160.087 388.787 158.865 389.29C157.644 389.793 156.539 390.523 155.613 391.439C154.688 392.355 153.96 393.438 153.474 394.626C152.987 395.813 152.75 397.082 152.776 398.358C152.803 399.634 153.093 400.893 153.629 402.06C154.165 403.228 154.937 404.282 155.9 405.162L155.89 405.161Z" fill="white"/>
<path opacity="0.5" d="M145.37 449.85C150.37 452.252 169.22 450.59 169.22 450.59C169.22 450.59 159.37 435.008 154.42 432.607C153.241 432.036 151.957 431.693 150.641 431.599C149.325 431.505 148.002 431.661 146.748 432.058C145.495 432.455 144.335 433.085 143.335 433.913C142.335 434.741 141.514 435.749 140.92 436.881C140.326 438.014 139.969 439.247 139.871 440.512C139.774 441.776 139.936 443.047 140.349 444.251C140.762 445.455 141.418 446.57 142.28 447.53C143.141 448.491 144.191 449.279 145.37 449.85Z" fill="white"/>
<path opacity="0.5" d="M141.34 494.578C145.8 497.748 164.72 499.18 164.72 499.18C164.72 499.18 157.72 482.224 153.29 479.006C151.147 477.477 148.46 476.829 145.819 477.204C143.179 477.579 140.801 478.946 139.21 481.004C137.619 483.063 136.944 485.645 137.334 488.181C137.724 490.718 139.147 493.002 141.29 494.53L141.34 494.578Z" fill="white"/>
<path d="M92.6901 520.429C92.6901 520.429 82.5301 487.316 94.6001 462.867C99.7315 452.662 101.279 441.134 99.0101 430.013C97.8903 424.742 96.2702 419.581 94.1701 414.594" stroke="#535461" stroke-width="2" stroke-miterlimit="10"/>
<path d="M101.68 399.166C101.68 403.23 94.0199 415.017 94.0199 415.017C94.0199 415.017 86.3599 403.23 86.3599 399.166C86.3599 397.215 87.1669 395.343 88.6034 393.963C90.04 392.583 91.9883 391.808 94.0199 391.808C96.0514 391.808 97.9998 392.583 99.4363 393.963C100.873 395.343 101.68 397.215 101.68 399.166Z" fill="#6C63FF"/>
<path d="M114.34 421.674C112.04 425.085 98.9399 430.983 98.9399 430.983C98.9399 430.983 99.1799 417.092 101.48 413.691C102.027 412.88 102.735 412.181 103.563 411.632C104.392 411.084 105.325 410.698 106.308 410.496C107.292 410.293 108.308 410.28 109.297 410.455C110.287 410.63 111.231 410.99 112.075 411.516C112.919 412.041 113.648 412.721 114.219 413.517C114.789 414.313 115.191 415.209 115.402 416.154C115.612 417.099 115.627 418.075 115.444 419.025C115.262 419.976 114.887 420.882 114.34 421.694V421.674Z" fill="#6C63FF"/>
<path d="M113.79 460.139C110.01 461.964 95.6099 460.706 95.6099 460.706C95.6099 460.706 103.11 448.832 106.89 446.997C107.789 446.554 108.77 446.286 109.778 446.209C110.785 446.132 111.798 446.247 112.759 446.547C113.72 446.848 114.61 447.328 115.376 447.96C116.143 448.592 116.772 449.364 117.227 450.231C117.683 451.098 117.955 452.042 118.028 453.01C118.101 453.979 117.975 454.951 117.655 455.872C117.336 456.793 116.83 457.644 116.166 458.377C115.503 459.109 114.695 459.708 113.79 460.139Z" fill="#6C63FF"/>
<path d="M106.55 489.16C103.15 491.581 88.73 492.667 88.73 492.667C88.73 492.667 94.04 479.746 97.44 477.296C98.2489 476.722 99.1678 476.306 100.144 476.072C101.12 475.839 102.135 475.792 103.13 475.935C104.125 476.078 105.081 476.408 105.943 476.907C106.805 477.405 107.557 478.061 108.155 478.838C108.753 479.615 109.186 480.498 109.429 481.436C109.672 482.373 109.721 483.348 109.572 484.304C109.423 485.26 109.079 486.178 108.561 487.006C108.042 487.835 107.359 488.557 106.55 489.131V489.16Z" fill="#6C63FF"/>
<path d="M82.8601 431.771C85.8601 434.605 100.03 437.535 100.03 437.535C100.03 437.535 96.5701 424.086 93.5301 421.204C92.0714 419.844 90.1104 419.097 88.0785 419.127C86.0465 419.157 84.1101 419.961 82.6951 421.362C81.2802 422.763 80.5027 424.647 80.5336 426.599C80.5645 428.551 81.4014 430.412 82.8601 431.771Z" fill="#6C63FF"/>
<path d="M74.8399 465.807C78.6199 467.632 93.0199 466.373 93.0199 466.373C93.0199 466.373 85.5199 454.5 81.7399 452.665C79.9277 451.802 77.8338 451.662 75.9149 452.277C73.9961 452.891 72.408 454.21 71.4971 455.944C70.5862 457.679 70.4265 459.69 71.0527 461.537C71.6789 463.385 73.0403 464.92 74.8399 465.807Z" fill="#6C63FF"/>
<path d="M71.77 499.91C75.17 502.331 89.59 503.416 89.59 503.416C89.59 503.416 84.28 490.496 80.88 488.046C80.071 487.471 79.1522 487.055 78.1759 486.822C77.1996 486.588 76.1851 486.542 75.1901 486.685C74.1951 486.828 73.2392 487.158 72.377 487.656C71.5148 488.154 70.7632 488.811 70.165 489.588C69.5668 490.365 69.1338 491.248 68.8908 492.185C68.6477 493.123 68.5993 494.098 68.7483 495.054C68.8974 496.01 69.2409 496.928 69.7594 497.756C70.2778 498.584 70.9611 499.306 71.77 499.881V499.91Z" fill="#6C63FF"/>
<path opacity="0.25" d="M101.68 399.166C101.68 403.23 94.0199 415.017 94.0199 415.017C94.0199 415.017 86.3599 403.23 86.3599 399.166C86.3599 397.215 87.1669 395.343 88.6034 393.963C90.04 392.583 91.9883 391.808 94.0199 391.808C96.0514 391.808 97.9998 392.583 99.4363 393.963C100.873 395.343 101.68 397.215 101.68 399.166Z" fill="black"/>
<path opacity="0.25" d="M114.34 421.674C112.04 425.085 98.9399 430.983 98.9399 430.983C98.9399 430.983 99.1799 417.092 101.48 413.691C102.027 412.88 102.735 412.181 103.563 411.632C104.392 411.084 105.325 410.698 106.308 410.496C107.292 410.293 108.308 410.28 109.297 410.455C110.287 410.63 111.231 410.99 112.075 411.516C112.919 412.041 113.648 412.721 114.219 413.517C114.789 414.313 115.191 415.209 115.402 416.154C115.612 417.099 115.627 418.075 115.444 419.025C115.262 419.976 114.887 420.882 114.34 421.694V421.674Z" fill="black"/>
<path opacity="0.25" d="M113.79 460.139C110.01 461.964 95.6099 460.706 95.6099 460.706C95.6099 460.706 103.11 448.832 106.89 446.997C107.789 446.554 108.77 446.286 109.778 446.209C110.785 446.132 111.798 446.247 112.759 446.547C113.72 446.848 114.61 447.328 115.376 447.96C116.143 448.592 116.772 449.364 117.227 450.231C117.683 451.098 117.955 452.042 118.028 453.01C118.101 453.979 117.975 454.951 117.655 455.872C117.336 456.793 116.83 457.644 116.166 458.377C115.503 459.109 114.695 459.708 113.79 460.139Z" fill="black"/>
<path opacity="0.25" d="M106.55 489.16C103.15 491.581 88.73 492.667 88.73 492.667C88.73 492.667 94.04 479.746 97.44 477.296C98.2489 476.722 99.1678 476.306 100.144 476.072C101.12 475.839 102.135 475.792 103.13 475.935C104.125 476.078 105.081 476.408 105.943 476.907C106.805 477.405 107.557 478.061 108.155 478.838C108.753 479.615 109.186 480.498 109.429 481.436C109.672 482.373 109.721 483.348 109.572 484.304C109.423 485.26 109.079 486.178 108.561 487.006C108.042 487.835 107.359 488.557 106.55 489.131V489.16Z" fill="black"/>
<path opacity="0.25" d="M82.8601 431.771C85.8601 434.605 100.03 437.535 100.03 437.535C100.03 437.535 96.5701 424.086 93.5301 421.204C92.0714 419.844 90.1104 419.097 88.0785 419.127C86.0465 419.157 84.1101 419.961 82.6951 421.362C81.2802 422.763 80.5027 424.647 80.5336 426.599C80.5645 428.551 81.4014 430.412 82.8601 431.771Z" fill="black"/>
<path opacity="0.25" d="M74.8399 465.807C78.6199 467.632 93.0199 466.373 93.0199 466.373C93.0199 466.373 85.5199 454.5 81.7399 452.665C79.9277 451.802 77.8338 451.662 75.9149 452.277C73.9961 452.891 72.408 454.21 71.4971 455.944C70.5862 457.679 70.4265 459.69 71.0527 461.537C71.6789 463.385 73.0403 464.92 74.8399 465.807Z" fill="black"/>
<path opacity="0.25" d="M71.77 499.91C75.17 502.331 89.59 503.416 89.59 503.416C89.59 503.416 84.28 490.496 80.88 488.046C80.071 487.471 79.1522 487.055 78.1759 486.822C77.1996 486.588 76.1851 486.542 75.1901 486.685C74.1951 486.828 73.2392 487.158 72.377 487.656C71.5148 488.154 70.7632 488.811 70.165 489.588C69.5668 490.365 69.1338 491.248 68.8908 492.185C68.6477 493.123 68.5993 494.098 68.7483 495.054C68.8974 496.01 69.2409 496.928 69.7594 497.756C70.2778 498.584 70.9611 499.306 71.77 499.881V499.91Z" fill="black"/>
<g opacity="0.7">
<path opacity="0.6" d="M990 77.012H0V562.141H990V77.012Z" fill="#6C63FF"/>
<path opacity="0.25" d="M0 77.012V563.102H990V77.012H0ZM44 119.281H473V298.922H44V119.281ZM44 341.191H473V520.833H44V341.191ZM946 520.833H517V341.191H946V520.833ZM946 298.922H517V119.281H946V298.922Z" fill="black"/>
</g>
<g opacity="0.7">
<path opacity="0.7" d="M363.11 583.16C363.11 583.16 276.47 552.726 264.61 595.562L297.84 676.708L301.4 728.583H373.79V684.595C373.79 684.595 363.11 640.636 390.41 613.593L363.11 583.16Z" fill="url(#paint0_linear)"/>
<g opacity="0.1">
<path opacity="0.1" d="M377.62 341.671C373.94 340.499 369.51 339.452 366.51 341.787C364.77 343.141 364.02 345.322 362.67 347.032C358.18 352.69 349.13 351.633 341.98 353.66C331.47 356.638 324.98 366.639 321.26 376.437C304.8 419.667 323.15 469.111 308.82 513.013C304.6 525.934 297.7 540.277 304.52 552.16C306.79 556.127 310.52 559.432 311.62 563.812C313.16 569.759 310.19 577.559 315.38 581.181C317 582.305 319.05 582.66 320.99 583.102C332.67 586.061 341.52 594.793 350.42 602.556C359.32 610.318 370.02 617.83 382.09 617.321C385.991 617.012 389.842 616.277 393.57 615.13L453.47 599.107C459.47 597.503 465.99 595.562 469.47 590.643C471.6 587.637 472.27 583.919 472.81 580.345C474.877 566.69 475.857 552.903 475.74 539.104C475.74 534.551 475.52 529.892 473.74 525.655C471.74 520.766 467.74 516.856 464.83 512.389C459.21 503.743 457.7 493.358 456.31 483.3C454.1 467.286 451.89 450.955 454.95 435.066C456.26 428.245 458.52 421.617 460.02 414.844C462.45 403.81 462.836 392.451 461.16 381.289C459.76 372.018 456.76 362.614 450.16 355.639C445.84 350.992 439.971 347.935 433.56 346.993C425.46 346.033 421.43 350.509 414.21 352.181C403.53 354.746 387.89 344.928 377.62 341.671Z" fill="url(#paint1_linear)"/>
</g>
<path opacity="0.7" d="M377.62 339.375C373.94 338.203 369.51 337.156 366.51 339.491C364.77 340.845 364.02 343.026 362.67 344.736C358.18 350.394 349.13 349.337 341.98 351.364C331.47 354.342 324.98 364.343 321.26 374.141C304.8 417.371 323.15 466.815 308.82 510.717C304.6 523.638 297.7 537.98 304.52 549.864C306.79 553.831 310.52 557.136 311.62 561.516C313.16 567.463 310.19 575.263 315.38 578.885C317 580.009 319.05 580.364 320.99 580.806C332.67 583.765 341.52 592.497 350.42 600.259C359.32 608.021 370 615.62 382.09 615.082C385.991 614.773 389.842 614.038 393.57 612.892L453.47 596.868C459.47 595.264 465.99 593.324 469.47 588.405C471.6 585.398 472.27 581.68 472.81 578.107C474.877 564.451 475.857 550.665 475.74 536.866C475.74 532.313 475.52 527.653 473.74 523.417C471.74 518.527 467.74 514.617 464.83 510.15C459.21 501.504 457.7 491.12 456.31 481.062C454.1 465.048 451.89 448.717 454.95 432.828C456.26 426.007 458.52 419.378 460.02 412.606C462.45 401.572 462.836 390.213 461.16 379.05C459.76 369.78 456.76 360.375 450.16 353.401C445.84 348.754 439.971 345.697 433.56 344.755C425.46 343.794 421.43 348.271 414.21 349.942C403.53 352.44 387.89 342.68 377.62 339.375Z" fill="url(#paint2_linear)"/>
<path opacity="0.7" d="M360.74 254.06C360.74 254.06 361.93 296.886 347.69 295.762C333.45 294.638 388 366.764 388 366.764L434.28 343.093C434.28 343.093 407 301.401 426 275.473C445 249.545 360.74 254.06 360.74 254.06Z" fill="url(#paint3_linear)"/>
<g opacity="0.1">
<path opacity="0.1" d="M281.22 618.099C281.22 618.099 271.73 680.09 247.99 663.182C224.25 646.275 227.81 618.099 227.81 618.099C227.81 618.099 274.1 498.632 271.73 480.591C269.36 462.55 350.73 322.372 350.73 322.372L380.87 552.727C380.87 552.727 290.71 584.284 281.22 618.099Z" fill="url(#paint4_linear)"/>
</g>
<path opacity="0.7" d="M278.85 618.099C278.85 618.099 269.36 680.09 245.62 663.182C221.88 646.275 225.44 618.099 225.44 618.099C225.44 618.099 271.73 498.632 269.35 480.591C266.97 462.55 348.35 322.372 348.35 322.372L378.49 552.727C378.49 552.727 288.34 584.284 278.85 618.099Z" fill="url(#paint5_linear)"/>
<path opacity="0.7" d="M363.11 281.112C363.11 281.112 316.82 311.516 299 310.412L285.17 314.024C271.495 317.547 259.118 324.674 249.437 334.6C239.757 344.526 233.16 356.854 230.39 370.193L230.17 371.269C223.07 407.341 220.69 506.529 220.69 506.529C220.69 506.529 221.88 532.466 233.74 539.191L309.74 588.78C309.74 588.78 307.37 534.685 335.85 529.046C364.33 523.407 328.73 526.789 328.73 526.789L276.51 497.489C276.51 497.489 277.7 453.53 291.94 438.889C306.18 424.249 356.03 347.627 356.03 347.627L341.79 300.296L363.11 281.112Z" fill="url(#paint6_linear)"/>
<g opacity="0.1">
<path opacity="0.1" d="M414.14 310.412C414.14 310.412 443.29 317.741 463.7 321.325C466.88 321.871 469.881 323.129 472.46 324.999C475.038 326.868 477.122 329.296 478.54 332.084C484.7 344.294 494.09 366.379 492.47 384.795L510.27 451.291L561.27 509.891L515 530.19L462.8 474.962L505.52 579.778L426 583.16C426 583.16 402.26 414.085 408.2 385.928L414.14 310.412Z" fill="url(#paint7_linear)"/>
</g>
<path opacity="0.7" d="M416.51 310.412C416.51 310.412 445.66 317.741 466.07 321.325C469.25 321.871 472.251 323.129 474.83 324.999C477.408 326.868 479.491 329.296 480.91 332.084C487.07 344.294 496.46 366.379 494.84 384.795L512.64 451.291L563.64 509.891L517.36 530.18L465.14 474.952L507.9 579.778L428.38 583.16C428.38 583.16 404.64 414.085 410.58 385.928L416.51 310.412Z" fill="url(#paint8_linear)"/>
<path opacity="0.7" d="M359.21 277.519L375.57 353.804L348.87 366.764L334.24 298.048L359.21 277.519Z" fill="url(#paint9_linear)"/>
<path opacity="0.7" d="M404.05 359.443L416.51 310.412L432.54 339.154L424.23 362.825L404.05 359.443Z" fill="url(#paint10_linear)"/>
<path opacity="0.1" d="M449.15 374.094C449.15 374.094 449.15 450.734 459.83 456.364L449.15 374.094Z" fill="url(#paint11_linear)"/>
<path opacity="0.1" d="M296.05 393.249C296.05 393.249 271.42 468.727 278.39 476.633L296.05 393.249Z" fill="url(#paint12_linear)"/>
<path opacity="0.1" d="M291.31 496.922C291.31 496.922 338.79 526.405 345.31 526.875L291.31 496.922Z" fill="url(#paint13_linear)"/>
<g opacity="0.1">
<path opacity="0.1" d="M361.92 258.566C361.92 258.566 362.1 265.165 361.46 273.11C365.693 282.544 372.716 290.577 381.657 296.212C390.599 301.848 401.066 304.838 411.76 304.811C414.691 304.809 417.616 304.584 420.51 304.139C420.2 295.704 421.89 287.241 427.19 280.017C446.18 254.06 361.92 258.566 361.92 258.566Z" fill="url(#paint14_linear)"/>
</g>
<path opacity="0.7" d="M410.58 300.277C440.729 300.277 465.17 277.065 465.17 248.431C465.17 219.797 440.729 196.584 410.58 196.584C380.431 196.584 355.99 219.797 355.99 248.431C355.99 277.065 380.431 300.277 410.58 300.277Z" fill="url(#paint15_linear)"/>
<g opacity="0.1">
<path opacity="0.1" d="M445.22 226.633C451.83 227.479 460.22 225.385 461.53 219.159C463.14 211.301 452.07 206.191 450.36 198.342C449.72 195.403 450.48 192.329 450.11 189.341C449.37 183.327 444.25 178.697 439.04 175.2C422.497 164.198 402.458 159.125 382.42 160.867C379.94 161.088 377.33 161.472 375.42 162.981C373.24 164.681 372.42 167.448 370.91 169.705C365.79 177.563 354.29 178.486 346.04 183.385C336.39 189.149 331.61 200.36 331.18 211.157C330.75 221.955 333.99 232.551 337.18 242.926C339.91 251.745 342.77 260.804 348.76 268.028C354.75 275.252 364.69 280.295 374.1 278.124C369.79 275.175 372.92 268.326 377.59 265.924C382.26 263.522 388.06 263.109 392.05 259.795C396.04 256.481 397.24 251.053 398.54 246.115C400.18 239.89 402.54 233.569 407.34 229.025C416.75 220.13 433.7 225.164 445.22 226.633Z" fill="url(#paint16_linear)"/>
</g>
<path opacity="0.7" d="M444 225.509C450.61 226.355 459 224.261 460.31 218.036C461.92 210.177 450.85 205.067 449.14 197.218C448.5 194.279 449.26 191.205 448.89 188.217C448.15 182.203 443.03 177.573 437.82 174.076C421.29 163.079 401.266 158.003 381.24 159.734C378.76 159.955 376.15 160.339 374.24 161.847C372.06 163.547 371.24 166.314 369.73 168.572C364.61 176.43 353.11 177.352 344.86 182.251C335.21 188.015 330.43 199.226 330 210.024C329.57 220.821 332.81 231.417 336 241.792C338.73 250.611 341.59 259.67 347.58 266.894C353.57 274.118 363.51 279.162 372.92 276.991C368.61 274.042 371.74 267.192 376.41 264.79C381.08 262.389 386.88 261.976 390.87 258.661C394.86 255.347 396.06 249.92 397.36 244.982C399 238.757 401.36 232.436 406.16 227.892C415.56 219.006 432.51 224.03 444 225.509Z" fill="url(#paint17_linear)"/>
<g opacity="0.1">
<path opacity="0.1" d="M401.14 255.424C400.34 260.784 398.56 270.064 395.21 275.924C390.78 283.55 386.991 291.504 383.88 299.71C383.88 299.71 405.74 315.782 416.88 326.762C420.309 330.211 424.698 332.641 429.523 333.763C434.349 334.885 439.408 334.653 444.1 333.093C449.89 331.094 454.96 327.233 456.31 319.989C458.43 308.567 455.91 299.95 453.53 294.849C452.383 292.439 451.782 289.822 451.768 287.172C451.755 284.522 452.328 281.9 453.45 279.479C454.27 277.749 455.23 276.395 456.3 276.059C456.3 276.059 434.94 271.553 433.75 277.183C432.56 282.812 415.95 288.451 412.39 278.307L411.39 255.943C411.328 254.675 410.759 253.48 409.801 252.606C408.843 251.733 407.571 251.248 406.25 251.255C405.019 251.243 403.824 251.658 402.886 252.424C401.947 253.19 401.327 254.255 401.14 255.424Z" fill="url(#paint18_linear)"/>
</g>
<path opacity="0.7" d="M401.14 256.558C400.34 261.918 398.56 271.198 395.21 277.058C390.78 284.684 386.991 292.638 383.88 300.844C383.88 300.844 405.74 316.915 416.88 327.896C420.309 331.344 424.698 333.774 429.523 334.897C434.349 336.019 439.408 335.786 444.1 334.226C449.89 332.228 454.96 328.366 456.31 321.123C458.43 309.701 455.91 301.084 453.53 295.983C452.383 293.573 451.782 290.956 451.768 288.306C451.755 285.656 452.328 283.033 453.45 280.612C454.27 278.883 455.23 277.529 456.3 277.192C456.3 277.192 434.94 272.687 433.75 278.316C432.56 283.946 415.95 289.585 412.39 279.44L411.39 257.076C411.328 255.809 410.759 254.614 409.801 253.74C408.843 252.866 407.571 252.382 406.25 252.388C405.019 252.377 403.824 252.792 402.886 253.558C401.947 254.324 401.327 255.389 401.14 256.558Z" fill="url(#paint19_linear)"/>
</g>
<path d="M364.27 582.42C364.27 582.42 281.1 552.871 269.71 594.457L301.61 673.231L305 723.636H374.5V680.935C374.5 680.935 364.25 638.253 390.5 611.979L364.27 582.42Z" fill="#535461"/>
<path opacity="0.1" d="M378.2 347.916C374.67 346.782 370.41 345.764 367.54 348.031C365.87 349.347 365.15 351.46 363.85 353.122C359.54 358.617 350.85 357.589 343.99 359.559C333.9 362.441 327.68 372.162 324.1 381.654C308.3 423.625 325.91 471.657 312.16 514.281C308.16 526.827 301.49 540.757 308.03 552.294C310.21 556.137 313.76 559.355 314.85 563.611C316.33 569.375 313.48 576.964 318.46 580.48C320.01 581.575 321.98 581.911 323.84 582.401C335.05 585.283 343.55 593.756 352.09 601.297C360.63 608.838 370.91 616.13 382.49 615.64C386.229 615.339 389.92 614.627 393.49 613.517L450.99 597.954C456.76 596.388 462.99 594.505 466.36 589.731C468.36 586.849 469.05 583.218 469.57 579.73C471.553 566.467 472.493 553.08 472.38 539.681C472.38 535.262 472.17 530.737 470.48 526.626C468.48 521.88 464.72 518.085 461.92 513.734C456.53 505.357 455.07 495.251 453.74 485.481C451.62 469.928 449.5 454.068 452.43 438.64C453.69 432.021 455.86 425.584 457.3 419.004C459.635 408.286 460.007 397.259 458.4 386.419C457.06 377.417 454.17 368.281 447.85 361.509C443.722 357.006 438.082 354.035 431.91 353.113C424.13 352.152 420.26 356.533 413.33 358.156C403.08 360.567 388.06 351.086 378.2 347.916Z" fill="black"/>
<path d="M378.2 345.725C374.67 344.592 370.41 343.573 367.54 345.841C365.87 347.157 365.15 349.27 363.85 350.932C359.54 356.427 350.85 355.399 343.99 357.368C333.9 360.25 327.68 369.972 324.1 379.463C308.3 421.434 325.91 469.467 312.16 512.091C308.16 524.637 301.49 538.567 308.03 550.104C310.21 553.947 313.76 557.165 314.85 561.421C316.33 567.184 313.48 574.774 318.46 578.29C320.01 579.385 321.98 579.721 323.84 580.211C335.05 583.093 343.55 591.566 352.09 599.107C360.63 606.648 370.91 613.939 382.49 613.449C386.229 613.149 389.92 612.436 393.49 611.326L451 595.773C456.77 594.208 463 592.325 466.37 587.55C468.37 584.668 469.06 581.037 469.58 577.55C471.563 564.287 472.503 550.899 472.39 537.5C472.39 533.081 472.18 528.557 470.49 524.445C468.49 519.699 464.73 515.905 461.93 511.553C456.54 503.176 455.08 493.07 453.75 483.3C451.63 467.747 449.51 451.887 452.44 436.459C453.7 429.84 455.87 423.404 457.31 416.823C459.645 406.105 460.017 395.079 458.41 384.238C457.07 375.237 454.18 366.101 447.86 359.328C443.744 354.82 438.115 351.839 431.95 350.903C424.17 349.943 420.3 354.323 413.37 355.947C403.08 358.387 388.06 348.895 378.2 345.725Z" fill="#E0E0E0"/>
<path d="M362 262.84C362 262.84 363.14 304.427 349.47 303.332C335.8 302.236 388.21 372.287 388.21 372.287L432.64 349.299C432.64 349.299 406.44 308.807 424.64 283.629C442.84 258.45 362 262.84 362 262.84Z" fill="#FDA57D"/>
<path opacity="0.1" d="M285.66 616.36C285.66 616.36 276.55 676.554 253.76 660.137C230.97 643.719 234.39 616.36 234.39 616.36C234.39 616.36 278.82 500.342 276.54 482.829C274.26 465.317 352.42 329.173 352.42 329.173L381.35 552.871C381.35 552.871 294.77 583.525 285.66 616.36Z" fill="black"/>
<path d="M283.38 616.36C283.38 616.36 274.27 676.554 251.48 660.137C228.69 643.719 232.11 616.36 232.11 616.36C232.11 616.36 276.54 500.342 274.26 482.829C271.98 465.317 350.14 329.173 350.14 329.173L379.07 552.871C379.07 552.871 292.49 583.525 283.38 616.36Z" fill="#EB5757"/>
<path d="M364.27 289.104C364.27 289.104 319.84 318.654 302.75 317.559L289.47 321.065C276.284 324.547 264.373 331.499 255.081 341.136C245.789 350.774 239.485 362.715 236.88 375.611L236.67 376.658C229.83 411.684 227.56 507.999 227.56 507.999C227.56 507.999 228.7 533.168 240.09 539.7L313 587.906C313 587.906 310.72 535.367 338.07 529.901C365.42 524.435 331.23 527.711 331.23 527.711L281.1 499.247C281.1 499.247 282.24 456.565 295.91 442.338C309.58 428.111 357.43 353.689 357.43 353.689L343.76 307.674L364.27 289.104Z" fill="#EB5757"/>
<path opacity="0.1" d="M413.26 317.569C413.26 317.569 441.26 324.687 460.84 328.136C463.904 328.675 466.791 329.903 469.266 331.72C471.741 333.536 473.733 335.89 475.08 338.588C480.99 350.452 490 371.884 488.45 389.771L505.54 454.346L554.54 511.255L510.1 530.987L460 477.363L501 579.193L424.66 582.42C424.66 582.42 401.87 418.245 407.57 390.886L413.26 317.569Z" fill="black"/>
<path d="M415.54 317.569C415.54 317.569 443.54 324.687 463.12 328.136C466.184 328.675 469.071 329.903 471.546 331.72C474.021 333.536 476.013 335.89 477.36 338.588C483.27 350.452 492.28 371.884 490.73 389.771L507.82 454.346L556.82 511.255L512.39 530.958L462.26 477.325L503.26 579.154L426.93 582.42C426.93 582.42 404.14 418.245 409.84 390.886L415.54 317.569Z" fill="#EB5757"/>
<path d="M360.53 285.627L376.24 359.703L350.6 372.287L336.56 305.56L360.53 285.627Z" fill="#E0E0E0"/>
<path d="M403.58 365.179L415.54 317.569L430.92 345.476L422.95 368.464L403.58 365.179Z" fill="#E0E0E0"/>
<path opacity="0.1" d="M446.87 379.406C446.87 379.406 446.87 453.827 457.12 459.303L446.87 379.406Z" fill="black"/>
<path opacity="0.1" d="M299.9 397.975C299.9 397.975 276.25 471.273 282.9 478.948L299.9 397.975Z" fill="black"/>
<path opacity="0.1" d="M295.34 498.699C295.34 498.699 340.92 527.327 347.18 527.788L295.34 498.699Z" fill="black"/>
<path opacity="0.1" d="M363.13 267.221C363.13 267.221 363.31 273.628 362.69 281.342C367.263 291.735 375.337 300.351 385.617 305.809C395.897 311.266 407.787 313.249 419.38 311.44C419.08 303.245 420.71 295.032 425.79 288.009C444 262.84 363.13 267.221 363.13 267.221Z" fill="black"/>
<path d="M409.84 307.722C438.785 307.722 462.25 285.181 462.25 257.374C462.25 229.568 438.785 207.027 409.84 207.027C380.895 207.027 357.43 229.568 357.43 257.374C357.43 285.181 380.895 307.722 409.84 307.722Z" fill="#FDA57D"/>
<path opacity="0.1" d="M443.09 236.211C449.44 237.028 457.53 234.991 458.75 228.958C460.3 221.321 449.67 216.364 448.03 208.784C447.41 205.902 448.15 202.944 447.79 200.052C447.08 194.211 442.16 189.715 437.16 186.324C421.327 175.656 402.069 170.728 382.81 172.414C380.43 172.635 377.92 173 376.08 174.46C373.99 176.113 373.18 178.793 371.75 181.012C366.83 188.64 355.75 189.543 347.88 194.298C338.61 199.86 334.03 210.783 333.61 221.273C333.19 231.763 336.31 242.052 339.39 252.119C342.01 260.688 344.76 269.478 350.51 276.491C356.26 283.504 365.81 288.403 374.83 286.29C370.69 283.408 373.7 276.77 378.18 274.445C382.66 272.12 388.18 271.717 392.07 268.489C395.96 265.261 397.07 259.997 398.3 255.203C399.88 249.151 402.16 243.022 406.75 238.603C415.77 229.861 432 234.78 443.09 236.211Z" fill="black"/>
<path d="M442 235.116C448.35 235.932 456.44 233.896 457.66 227.863C459.21 220.226 448.58 215.269 446.94 207.689C446.32 204.807 447.06 201.848 446.7 198.957C445.94 193.068 441 188.553 436 185.181C420.176 174.516 400.93 169.585 381.68 171.261C379.3 171.482 376.79 171.847 374.95 173.307C372.86 174.96 372.05 177.64 370.62 179.859C365.7 187.487 354.62 188.39 346.75 193.145C337.48 198.707 332.9 209.63 332.48 220.12C332.06 230.61 335.18 240.899 338.26 250.967C340.88 259.536 343.63 268.325 349.38 275.338C355.13 282.351 364.68 287.25 373.7 285.137C369.56 282.255 372.57 275.617 377.05 273.292C381.53 270.967 387.05 270.564 390.94 267.336C394.83 264.108 395.94 258.844 397.17 254.05C398.75 247.998 401.03 241.869 405.62 237.45C414.63 228.795 430.9 233.704 442 235.116Z" fill="#72351C"/>
<path opacity="0.1" d="M400.78 264.166C400.01 269.373 398.3 278.384 395.08 284.071C390.826 291.468 387.187 299.177 384.2 307.126C384.2 307.126 405.2 322.737 415.85 333.4C419.119 336.743 423.328 339.104 427.966 340.195C432.604 341.286 437.472 341.062 441.98 339.548C447.54 337.627 452.41 333.852 453.7 326.829C455.7 315.734 453.32 307.366 451.04 302.41C449.947 300.066 449.379 297.527 449.372 294.959C449.365 292.391 449.92 289.85 451 287.5C451.79 285.819 452.71 284.513 453.74 284.176C453.74 284.176 433.23 279.796 432.09 285.272C430.95 290.747 415 296.213 411.58 286.367L410.64 264.646C410.588 263.421 410.045 262.263 409.124 261.414C408.203 260.565 406.976 260.092 405.7 260.093C404.505 260.084 403.348 260.492 402.443 261.241C401.538 261.99 400.947 263.03 400.78 264.166Z" fill="black"/>
<path d="M400.78 265.261C400.01 270.468 398.3 279.479 395.08 285.166C390.826 292.563 387.188 300.272 384.2 308.221C384.2 308.221 405.2 323.832 415.85 334.495C419.119 337.839 423.328 340.199 427.966 341.29C432.604 342.381 437.472 342.157 441.98 340.643C447.54 338.722 452.41 334.947 453.7 327.924C455.7 316.829 453.32 308.462 451.04 303.505C449.936 301.157 449.36 298.613 449.348 296.038C449.336 293.462 449.888 290.913 450.97 288.557C451.76 286.876 452.68 285.569 453.71 285.233C453.71 285.233 433.2 280.852 432.06 286.328C430.92 291.804 415 297.318 411.55 287.5L410.61 265.78C410.558 264.555 410.015 263.397 409.094 262.548C408.173 261.699 406.946 261.225 405.67 261.226C404.486 261.223 403.341 261.629 402.443 262.37C401.546 263.11 400.955 264.137 400.78 265.261Z" fill="#72351C"/>
<path d="M808 576.656C808 576.656 787.41 556.857 779.84 530.545H781.61L780.76 528.259H781.61L778.93 520.939C786.52 513.772 792.13 506.827 793.04 502.878C794.58 496.231 796.11 460.264 797.04 435.268L797.86 435.46C799.86 432.174 800.28 428.034 800.14 424.278C800.216 420.059 799.65 415.851 798.46 411.789L794.75 376.101C794.393 372.818 793.345 369.639 791.668 366.757C789.992 363.875 787.724 361.351 785 359.338L747.4 331.315C749.379 328.751 751.892 326.612 754.78 325.033C756.93 323.938 759.43 323.188 760.88 321.315C763.5 317.924 761.27 312.871 763.06 309.009C764.4 306.127 767.7 304.513 769.63 301.929C773.58 296.636 770.72 289.325 767.77 283.465L750.63 249.43C745.88 240.006 741.09 230.505 734.45 222.205C714.12 196.767 675 184.115 643.11 195.143C634.02 198.284 625.65 204.317 621.77 212.81C620.42 215.768 619.61 218.996 617.65 221.619C613.28 227.469 604.75 228.574 598.65 232.781C590.86 238.19 587.97 248.373 589.06 257.547C590.15 266.721 594.53 275.194 598.85 283.485C603.39 292.131 608.08 301.036 615.53 307.587C619.01 310.652 623.27 313.495 624.38 317.905C625.33 321.69 623.65 325.59 624 329.509C624.146 331.14 624.643 332.723 625.46 334.159C608.63 336.186 596.69 349.616 591.34 369.597C591.01 370.837 590.88 371.519 590.88 371.519L588.51 392.211C588.46 393.105 588.51 393.969 588.51 394.824C588.295 399.48 589.328 404.111 591.51 408.273V480.927L519.51 524.714C508.71 529.325 511.11 566.204 532.71 573.111C554.31 580.019 573.52 536.309 573.52 536.309C586.67 535.464 608.79 518.614 620.68 505.568C622.287 508.06 624.424 510.198 626.95 511.841C618.37 530.42 601.4 568.856 604.11 576.656C605.74 581.363 647.88 581.796 693.43 580.874C694.595 581.495 695.817 582.013 697.08 582.42C701.94 583.976 706.68 582.958 711.08 580.451C760.36 579.096 808 576.656 808 576.656ZM747.19 435.777C748.19 433.116 751.47 431.665 755.86 430.973V458.996L747.19 435.777ZM743 337.31L743.14 337.108L743 337.31Z" fill="url(#paint20_linear)"/>
<path d="M634.86 400.751C634.86 400.751 632.58 478.458 630.3 488.315C628.02 498.171 595 527.663 577.89 528.806C577.89 528.806 559.66 570.393 539.15 563.832C518.64 557.27 516.36 522.245 526.62 517.864L595 476.268V393.085L634.86 400.751Z" fill="#FDB797"/>
<path d="M633.15 495.962C633.15 495.962 603.53 557.251 606.95 567.107C610.37 576.964 800.63 567.107 800.63 567.107C800.63 567.107 765.31 533.177 772.15 495.962H633.15Z" fill="#3AD29F"/>
<path d="M655.94 314.283C655.94 314.283 660.5 356.965 652.52 366.821C644.54 376.677 684.42 382.192 687.84 382.192C691.26 382.192 727.72 370.155 734.55 366.821C741.38 363.488 747.08 339.462 747.08 339.462C747.08 339.462 712.9 346.033 702.65 307.76L655.94 314.283Z" fill="#FDB797"/>
<path d="M644 204.788C635.37 207.776 627.41 213.501 623.73 221.571C622.45 224.376 621.68 227.44 619.82 229.938C615.67 235.491 607.57 236.538 601.82 240.505C594.42 245.645 591.68 255.309 592.71 264.032C593.74 272.754 597.9 280.795 602 288.634C606.31 296.867 610.77 305.301 617.84 311.526C621.14 314.408 625.19 317.136 626.24 321.325C627.14 324.918 625.55 328.674 625.88 332.353C626.7 341.45 638.02 345.687 647.47 346.696C651.58 347.137 656.28 347.157 659.18 344.323C660.66 342.863 661.41 340.884 662.34 339.058C664.49 334.878 667.804 331.352 671.914 328.87C676.024 326.389 680.769 325.051 685.623 325.003C690.476 324.955 695.249 326.2 699.411 328.6C703.573 331 706.961 334.46 709.2 338.597C711.42 342.69 712.71 347.666 716.74 350.125C722.91 353.968 731.17 349.462 735.74 343.91C740.31 338.357 743.59 331.421 750.08 328.088C752.08 327.041 754.5 326.339 755.88 324.553C758.37 321.334 756.25 316.531 757.95 312.871C759.23 310.114 762.36 308.606 764.19 306.147C767.94 301.122 765.19 294.177 762.42 288.615L746.14 256.289C741.63 247.335 737.08 238.315 730.78 230.428C711.43 206.335 674.28 194.317 644 204.788Z" fill="#F2C94C"/>
<path opacity="0.1" d="M685.56 374.478C685.56 374.478 729.99 374.478 741.39 335.091L778.79 362.95C781.372 364.873 783.52 367.281 785.102 370.028C786.683 372.775 787.666 375.802 787.99 378.925L791.52 412.817C791.52 412.817 795.52 425.402 790.95 433.068C790.95 433.068 743.67 421.54 742.53 434.71L775.53 523.359C775.53 523.359 724.26 524.455 710.59 515.674C710.59 515.674 654.76 526.616 641.09 514.579C627.42 502.542 613.75 503.637 625.09 476.268C625.09 476.268 602.3 454.375 612.56 423.73C622.82 393.085 613.13 424.278 613.13 424.278C613.13 424.278 591 413.884 592.14 394.133L594.42 374.43C594.42 374.43 594.54 373.776 594.86 372.604C601.81 346.667 620.47 332.257 646.71 341.441C654.38 344.111 662.22 341.047 662.22 341.047C662.22 341.047 653.66 376.668 685.56 374.478Z" fill="black"/>
<path d="M685.56 372.287C685.56 372.287 729.99 372.287 741.39 332.901L778.79 360.76C781.372 362.683 783.52 365.091 785.102 367.838C786.683 370.584 787.666 373.612 787.99 376.735L791.52 410.627C791.52 410.627 795.52 423.211 790.95 430.877C790.95 430.877 743.67 419.35 742.53 432.52L775.53 521.169C775.53 521.169 724.26 522.264 710.59 513.484C710.59 513.484 654.76 524.426 641.09 512.389C627.42 500.352 613.75 501.447 625.09 474.078C625.09 474.078 602.3 452.185 612.56 421.54C622.82 390.895 613.13 422.087 613.13 422.087C613.13 422.087 591 411.693 592.14 391.99L594.42 372.287C594.42 372.287 594.54 371.634 594.86 370.462C601.81 344.524 620.47 330.115 646.71 339.299C654.38 341.969 662.22 338.905 662.22 338.905C662.22 338.905 653.66 374.478 685.56 372.287Z" fill="#252A62"/>
<path d="M790.95 409.503C790.95 409.503 788.67 487.21 786.39 497.066C784.11 506.923 751.07 536.453 733.98 537.558C733.98 537.558 715.75 579.144 695.24 572.583C674.73 566.022 672.45 530.996 682.71 526.616L751.07 485.029V401.818L790.95 409.503Z" fill="#FDB797"/>
<path opacity="0.1" d="M742 412.241C742 412.241 768.2 429.321 791 427.9C791 427.9 793.28 398.561 786.44 396.918C779.6 395.276 749.93 396.918 742 412.241Z" fill="black"/>
<path d="M742 411.146C742 411.146 768.2 428.226 791 426.804C791 426.804 793.28 397.466 786.44 395.823C779.6 394.181 749.93 395.823 742 411.146Z" fill="#252A62"/>
<path opacity="0.1" d="M704.93 309.903L658.22 316.473C658.22 316.473 659.27 326.349 659.48 337.694C668.561 341.373 678.538 342.519 688.266 341C697.994 339.481 707.079 335.359 714.48 329.106C710.54 324.485 707.17 318.241 704.93 309.903Z" fill="black"/>
<path d="M677.59 339.462C706.535 339.462 730 316.92 730 289.114C730 261.308 706.535 238.766 677.59 238.766C648.645 238.766 625.18 261.308 625.18 289.114C625.18 316.92 648.645 339.462 677.59 339.462Z" fill="#FDB797"/>
<path opacity="0.1" d="M691.4 279.431C689.167 280.237 686.778 280.565 684.4 280.391C675.133 280.334 665.87 280.013 656.61 279.431C649.61 278.979 642.11 278.182 636.7 273.868C629.42 268.105 628.27 257.182 632.03 248.843C635.79 240.505 643.46 234.357 651.56 229.63C656.135 226.858 661.089 224.711 666.28 223.252C681.28 219.332 697.92 224.145 709.85 233.752C721.78 243.358 729.39 257.23 733.42 271.678C734.81 276.674 736.6 282.63 741.75 284.167C738.32 289.642 729.95 290.517 723.95 287.769C715.09 283.725 710.55 268.239 702.6 265.799C693.73 263.061 698.89 276.126 691.4 279.431Z" fill="black"/>
<path d="M691.4 278.336C689.167 279.142 686.778 279.47 684.4 279.296C675.133 279.239 665.87 278.918 656.61 278.336C649.61 277.884 642.11 277.087 636.7 272.773C629.42 267.009 628.27 256.087 632.03 247.748C635.79 239.41 643.46 233.262 651.56 228.535C656.133 225.771 661.084 223.63 666.27 222.176C681.27 218.256 697.91 223.069 709.84 232.676C721.77 242.282 729.38 256.154 733.41 270.602C734.8 275.598 736.59 281.554 741.74 283.091C738.31 288.566 729.94 289.441 723.94 286.693C715.08 282.649 710.54 267.163 702.59 264.723C693.73 261.966 698.89 275.012 691.4 278.336Z" fill="#F2C94C"/>
<path opacity="0.1" d="M624.61 473.53C641.698 469.144 659.312 466.935 677 466.959L624.61 473.53Z" fill="black"/>
<path opacity="0.1" d="M742 414.431C742 414.431 724.91 426.468 729.47 433.039L742 414.431Z" fill="black"/>
<g opacity="0.7">
<path opacity="0.7" d="M859.31 533.725H299.9V580.72H332.46V728.545H827.91V580.72H859.31V533.725Z" fill="url(#paint21_linear)"/>
</g>
<path d="M822.85 561.094H337.5V728.555H822.85V561.094Z" fill="white"/>
<path opacity="0.1" d="M822.85 569.845H337.5V596.11H822.85V569.845Z" fill="black"/>
<path d="M853.61 542.486H305.6V587.358H853.61V542.486Z" fill="white"/>
<path d="M482.46 531.438H390.64C387.05 531.438 384.14 534.234 384.14 537.683V539.421C384.14 542.87 387.05 545.666 390.64 545.666H482.46C486.05 545.666 488.96 542.87 488.96 539.421V537.683C488.96 534.234 486.05 531.438 482.46 531.438Z" fill="#535461"/>
<g opacity="0.7">
<path opacity="0.7" d="M680.24 372.806H476.16C460.574 372.806 447.94 384.944 447.94 399.916V518.739C447.94 533.711 460.574 545.848 476.16 545.848H680.24C695.825 545.848 708.46 533.711 708.46 518.739V399.916C708.46 384.944 695.825 372.806 680.24 372.806Z" fill="url(#paint22_linear)"/>
</g>
<path d="M672.53 375.995H479.42C464.597 375.995 452.58 387.539 452.58 401.779V520.055C452.58 534.295 464.597 545.839 479.42 545.839H672.53C687.353 545.839 699.37 534.295 699.37 520.055V401.779C699.37 387.539 687.353 375.995 672.53 375.995Z" fill="#3E3F49"/>
<path d="M675.95 375.995H482.84C468.017 375.995 456 387.539 456 401.779V520.055C456 534.295 468.017 545.839 482.84 545.839H675.95C690.773 545.839 702.79 534.295 702.79 520.055V401.779C702.79 387.539 690.773 375.995 675.95 375.995Z" fill="#535461"/>
<path d="M590.92 467.421C595.327 467.421 598.9 463.989 598.9 459.755C598.9 455.521 595.327 452.089 590.92 452.089C586.513 452.089 582.94 455.521 582.94 459.755C582.94 463.989 586.513 467.421 590.92 467.421Z" fill="#E0E0E0"/>
<path opacity="0.1" d="M264.58 564.37C264.58 564.37 271.32 573.87 291.31 576.781L264.58 564.37Z" fill="black"/>
<path opacity="0.2" d="M443 77.012H372V38.5859H443V77.012ZM375 74.1301H440V41.4679H375V74.1301Z" fill="#6C63FF"/>
<path opacity="0.2" d="M514 77.012H443V38.5859H514V77.012ZM446 74.1301H511V41.4679H446V74.1301Z" fill="#6C63FF"/>
<path opacity="0.2" d="M585 77.012H514V38.5859H585V77.012ZM517 74.1301H582V41.4679H517V74.1301Z" fill="#6C63FF"/>
<path opacity="0.2" d="M656 77.012H585V38.5859H656V77.012ZM588 74.1301H653V41.4679H588V74.1301Z" fill="#6C63FF"/>
<path opacity="0.2" d="M585 38.5857H514V0.159668H585V38.5857ZM517 35.7038H582V3.04162H517V35.7038Z" fill="#6C63FF"/>
<path opacity="0.2" d="M514 38.5857H443V0.159668H514V38.5857ZM446 35.7038H511V3.04162H446V35.7038Z" fill="#6C63FF"/>
<path opacity="0.2" d="M180 77.012H109V38.5859H180V77.012ZM112 74.1301H177V41.4679H112V74.1301Z" fill="#6C63FF"/>
<path opacity="0.2" d="M251 77.012H180V38.5859H251V77.012ZM183 74.1301H248V41.4679H183V74.1301Z" fill="#6C63FF"/>
<path opacity="0.2" d="M251 38.5857H180V0.159668H251V38.5857ZM183 35.7038H248V3.04162H183V35.7038Z" fill="#6C63FF"/>
<path opacity="0.2" d="M800 77.012H729V38.5859H800V77.012ZM732 74.1301H797V41.4679H732V74.1301Z" fill="#6C63FF"/>
<path opacity="0.2" d="M871 77.012H800V38.5859H871V77.012ZM803 74.1301H868V41.4679H803V74.1301Z" fill="#6C63FF"/>
<path opacity="0.2" d="M871 38.5857H800V0.159668H871V38.5857ZM803 35.7038H868V3.04162H803V35.7038Z" fill="#6C63FF"/>
<defs>
<linearGradient id="paint0_linear" x1="264.61" y1="650.629" x2="390.41" y2="650.629" gradientUnits="userSpaceOnUse">
<stop stop-color="#808080" stop-opacity="0.251"/>
<stop offset="0.54" stop-color="#808080" stop-opacity="0.122"/>
<stop offset="1" stop-color="#808080" stop-opacity="0.102"/>
</linearGradient>
<linearGradient id="paint1_linear" x1="301.643" y1="478.869" x2="475.749" y2="478.869" gradientUnits="userSpaceOnUse">
<stop stop-color="#808080" stop-opacity="0.251"/>
<stop offset="0.54" stop-color="#808080" stop-opacity="0.122"/>
<stop offset="1" stop-color="#808080" stop-opacity="0.102"/>
</linearGradient>
<linearGradient id="paint2_linear" x1="301.643" y1="476.602" x2="475.749" y2="476.602" gradientUnits="userSpaceOnUse">
<stop stop-color="#808080" stop-opacity="0.251"/>
<stop offset="0.54" stop-color="#808080" stop-opacity="0.122"/>
<stop offset="1" stop-color="#808080" stop-opacity="0.102"/>
</linearGradient>
<linearGradient id="paint3_linear" x1="345.319" y1="310.261" x2="434.28" y2="310.261" gradientUnits="userSpaceOnUse">
<stop stop-color="#808080" stop-opacity="0.251"/>
<stop offset="0.54" stop-color="#808080" stop-opacity="0.122"/>
<stop offset="1" stop-color="#808080" stop-opacity="0.102"/>
</linearGradient>
<linearGradient id="paint4_linear" x1="227.621" y1="494.238" x2="380.87" y2="494.238" gradientUnits="userSpaceOnUse">
<stop stop-color="#808080" stop-opacity="0.251"/>
<stop offset="0.54" stop-color="#808080" stop-opacity="0.122"/>
<stop offset="1" stop-color="#808080" stop-opacity="0.102"/>
</linearGradient>
<linearGradient id="paint5_linear" x1="225.25" y1="494.238" x2="378.49" y2="494.238" gradientUnits="userSpaceOnUse">
<stop stop-color="#808080" stop-opacity="0.251"/>
<stop offset="0.54" stop-color="#808080" stop-opacity="0.122"/>
<stop offset="1" stop-color="#808080" stop-opacity="0.102"/>
</linearGradient>
<linearGradient id="paint6_linear" x1="220.69" y1="434.946" x2="363.11" y2="434.946" gradientUnits="userSpaceOnUse">
<stop stop-color="#808080" stop-opacity="0.251"/>
<stop offset="0.54" stop-color="#808080" stop-opacity="0.122"/>
<stop offset="1" stop-color="#808080" stop-opacity="0.102"/>
</linearGradient>
<linearGradient id="paint7_linear" x1="407.246" y1="446.786" x2="561.27" y2="446.786" gradientUnits="userSpaceOnUse">
<stop stop-color="#808080" stop-opacity="0.251"/>
<stop offset="0.54" stop-color="#808080" stop-opacity="0.122"/>
<stop offset="1" stop-color="#808080" stop-opacity="0.102"/>
</linearGradient>
<linearGradient id="paint8_linear" x1="409.626" y1="446.786" x2="563.64" y2="446.786" gradientUnits="userSpaceOnUse">
<stop stop-color="#808080" stop-opacity="0.251"/>
<stop offset="0.54" stop-color="#808080" stop-opacity="0.122"/>
<stop offset="1" stop-color="#808080" stop-opacity="0.102"/>
</linearGradient>
<linearGradient id="paint9_linear" x1="334.24" y1="322.141" x2="375.57" y2="322.141" gradientUnits="userSpaceOnUse">
<stop stop-color="#808080" stop-opacity="0.251"/>
<stop offset="0.54" stop-color="#808080" stop-opacity="0.122"/>
<stop offset="1" stop-color="#808080" stop-opacity="0.102"/>
</linearGradient>
<linearGradient id="paint10_linear" x1="404.05" y1="336.618" x2="432.54" y2="336.618" gradientUnits="userSpaceOnUse">
<stop stop-color="#808080" stop-opacity="0.251"/>
<stop offset="0.54" stop-color="#808080" stop-opacity="0.122"/>
<stop offset="1" stop-color="#808080" stop-opacity="0.102"/>
</linearGradient>
<linearGradient id="paint11_linear" x1="449.15" y1="415.229" x2="459.83" y2="415.229" gradientUnits="userSpaceOnUse">
<stop stop-color="#808080" stop-opacity="0.251"/>
<stop offset="0.54" stop-color="#808080" stop-opacity="0.122"/>
<stop offset="1" stop-color="#808080" stop-opacity="0.102"/>
</linearGradient>
<linearGradient id="paint12_linear" x1="277.147" y1="434.941" x2="296.05" y2="434.941" gradientUnits="userSpaceOnUse">
<stop stop-color="#808080" stop-opacity="0.251"/>
<stop offset="0.54" stop-color="#808080" stop-opacity="0.122"/>
<stop offset="1" stop-color="#808080" stop-opacity="0.102"/>
</linearGradient>
<linearGradient id="paint13_linear" x1="291.31" y1="511.929" x2="345.31" y2="511.929" gradientUnits="userSpaceOnUse">
<stop stop-color="#808080" stop-opacity="0.251"/>
<stop offset="0.54" stop-color="#808080" stop-opacity="0.122"/>
<stop offset="1" stop-color="#808080" stop-opacity="0.102"/>
</linearGradient>
<linearGradient id="paint14_linear" x1="361.46" y1="281.539" x2="429.977" y2="281.539" gradientUnits="userSpaceOnUse">
<stop stop-color="#808080" stop-opacity="0.251"/>
<stop offset="0.54" stop-color="#808080" stop-opacity="0.122"/>
<stop offset="1" stop-color="#808080" stop-opacity="0.102"/>
</linearGradient>
<linearGradient id="paint15_linear" x1="355.99" y1="248.431" x2="465.17" y2="248.431" gradientUnits="userSpaceOnUse">
<stop stop-color="#808080" stop-opacity="0.251"/>
<stop offset="0.54" stop-color="#808080" stop-opacity="0.122"/>
<stop offset="1" stop-color="#808080" stop-opacity="0.102"/>
</linearGradient>
<linearGradient id="paint16_linear" x1="331.141" y1="219.582" x2="461.689" y2="219.582" gradientUnits="userSpaceOnUse">
<stop stop-color="#808080" stop-opacity="0.251"/>
<stop offset="0.54" stop-color="#808080" stop-opacity="0.122"/>
<stop offset="1" stop-color="#808080" stop-opacity="0.102"/>
</linearGradient>
<linearGradient id="paint17_linear" x1="329.961" y1="218.451" x2="460.469" y2="218.451" gradientUnits="userSpaceOnUse">
<stop stop-color="#808080" stop-opacity="0.251"/>
<stop offset="0.54" stop-color="#808080" stop-opacity="0.122"/>
<stop offset="1" stop-color="#808080" stop-opacity="0.102"/>
</linearGradient>
<linearGradient id="paint18_linear" x1="383.88" y1="292.858" x2="457.033" y2="292.858" gradientUnits="userSpaceOnUse">
<stop stop-color="#808080" stop-opacity="0.251"/>
<stop offset="0.54" stop-color="#808080" stop-opacity="0.122"/>
<stop offset="1" stop-color="#808080" stop-opacity="0.102"/>
</linearGradient>
<linearGradient id="paint19_linear" x1="383.88" y1="293.992" x2="457.033" y2="293.992" gradientUnits="userSpaceOnUse">
<stop stop-color="#808080" stop-opacity="0.251"/>
<stop offset="0.54" stop-color="#808080" stop-opacity="0.122"/>
<stop offset="1" stop-color="#808080" stop-opacity="0.102"/>
</linearGradient>
<linearGradient id="paint20_linear" x1="660.623" y1="583.159" x2="660.623" y2="191.141" gradientUnits="userSpaceOnUse">
<stop stop-color="#808080" stop-opacity="0.251"/>
<stop offset="0.54" stop-color="#808080" stop-opacity="0.122"/>
<stop offset="1" stop-color="#808080" stop-opacity="0.102"/>
</linearGradient>
<linearGradient id="paint21_linear" x1="579.605" y1="728.545" x2="579.605" y2="533.725" gradientUnits="userSpaceOnUse">
<stop stop-color="#808080" stop-opacity="0.251"/>
<stop offset="0.54" stop-color="#808080" stop-opacity="0.122"/>
<stop offset="1" stop-color="#808080" stop-opacity="0.102"/>
</linearGradient>
<linearGradient id="paint22_linear" x1="578.2" y1="545.848" x2="578.2" y2="372.806" gradientUnits="userSpaceOnUse">
<stop stop-color="#808080" stop-opacity="0.251"/>
<stop offset="0.54" stop-color="#808080" stop-opacity="0.122"/>
<stop offset="1" stop-color="#808080" stop-opacity="0.102"/>
</linearGradient>
</defs>
</svg>
