<svg width="16" height="16" viewBox="0 0 16 16" fill="none" xmlns="http://www.w3.org/2000/svg">
<path d="M10.7 7.92456C10.7 6.43871 9.5 5.25002 8 5.25002C6.5 5.25002 5.3 6.43871 5.3 7.92456C5.3 9.41042 6.5 10.5991 8 10.5991C9.5 10.5991 10.7 9.41042 10.7 7.92456ZM12.1 7.92456C12.1 10.2029 10.3 11.9859 8 11.9859C5.7 11.9859 3.9 10.2029 3.9 7.92456C3.9 5.64625 5.7 3.86322 8 3.86322C10.3 3.86322 12.1 5.64625 12.1 7.92456ZM13.2 3.66511C13.2 4.25945 12.8 4.65568 12.2 4.65568C11.6 4.65568 11.2 4.25945 11.2 3.66511C11.2 3.07077 11.6 2.67454 12.2 2.67454C12.8 2.67454 13.2 3.16982 13.2 3.66511ZM8 1.3868C6.8 1.3868 4.3 1.28774 3.3 1.68397C2.6 1.98114 2 2.57548 1.8 3.26888C1.4 4.25945 1.5 6.73588 1.5 7.92456C1.5 9.11324 1.4 11.5897 1.8 12.5802C2 13.2736 2.6 13.868 3.3 14.0661C4.3 14.4623 6.9 14.3633 8 14.3633C9.1 14.3633 11.7 14.4623 12.7 14.0661C13.4 13.7689 13.9 13.2736 14.2 12.5802C14.6 11.4906 14.5 9.01419 14.5 7.92456C14.5 6.83493 14.6 4.25945 14.2 3.26888C14 2.57548 13.4 1.98114 12.7 1.78303C11.7 1.28774 9.2 1.3868 8 1.3868ZM16 7.92456V11.1934C16 12.3821 15.6 13.5708 14.7 14.5614C13.8 15.4529 12.6 15.8491 11.3 15.8491H4.7C3.5 15.8491 2.3 15.4529 1.3 14.5614C0.5 13.6699 0 12.4812 0 11.1934V7.92456V4.65568C0 3.36794 0.5 2.17925 1.3 1.28774C2.3 0.495285 3.5 0 4.7 0H11.3C12.5 0 13.7 0.396228 14.7 1.28774C15.5 2.17925 16 3.36794 16 4.65568V7.92456Z" fill="white"/>
</svg>
