<svg width="17" height="16" viewBox="0 0 17 16" fill="none" xmlns="http://www.w3.org/2000/svg">
<g clip-path="url(#clip0)">
<path d="M3.85816 15.9995V5.20434H0.214026V15.9995H3.85816ZM2.03657 3.72956C3.30734 3.72956 4.09834 2.90062 4.09834 1.86471C4.07466 0.805448 3.30739 -0.000488281 2.06068 -0.000488281C0.814167 -0.000488281 -0.000976562 0.805464 -0.000976562 1.86471C-0.000976562 2.90066 0.789825 3.72956 2.01278 3.72956H2.03645H2.03657ZM5.87518 15.9995H9.51932V9.97097C9.51932 9.64833 9.543 9.32602 9.63923 9.09538C9.90267 8.45076 10.5023 7.78311 11.5089 7.78311C12.8276 7.78311 13.3551 8.77306 13.3551 10.2243V15.9994H16.9991V9.80959C16.9991 6.49374 15.2012 4.9509 12.8036 4.9509C10.8377 4.9509 9.9746 6.03286 9.49508 6.76977H9.5194V5.20412H5.87527C5.92309 6.21708 5.87527 15.9993 5.87527 15.9993L5.87518 15.9995Z" fill="white"/>
</g>
<defs>
<clipPath id="clip0">
<rect width="17" height="16" fill="white"/>
</clipPath>
</defs>
</svg>
