<svg width="24" height="19" viewBox="0 0 24 19" fill="none" xmlns="http://www.w3.org/2000/svg">
<path d="M22.0844 2.22258L24 0.399321V0H17.3656L12.6375 11.7134L7.25937 0H0.303125V0.399321L2.54063 3.08003C2.75938 3.27815 2.87188 3.56912 2.84375 3.8601V14.3941C2.9125 14.7749 2.79062 15.1618 2.52187 15.4373L0 18.4802V18.8733H7.14375V18.474L4.625 15.4404C4.49005 15.3047 4.38854 15.1399 4.32837 14.959C4.26821 14.7781 4.25101 14.5858 4.27812 14.3972V5.28404L10.55 18.8795H11.2781L16.6719 5.28404V16.1152C16.6719 16.4 16.6719 16.4588 16.4844 16.6477L14.5438 18.5143V18.9136H23.9562V18.5143L22.0844 16.691C21.9219 16.5672 21.8375 16.3598 21.8719 16.1586V2.75501C21.8557 2.65553 21.8669 2.55358 21.9043 2.45988C21.9417 2.36618 22.0039 2.2842 22.0844 2.22258Z" fill="white"/>
</svg>
