<svg width="150" height="150" viewBox="0 0 150 150" fill="none" xmlns="http://www.w3.org/2000/svg">
<path d="M90.8385 45.3594V40.8117C90.8385 40.3948 90.5134 40.0538 90.1162 40.0538H55.4459C55.0487 40.0538 54.7236 40.3948 54.7236 40.8117V45.3594C54.7236 45.7762 55.0487 46.1173 55.4459 46.1173H90.1162C90.5134 46.1173 90.8385 45.7762 90.8385 45.3594ZM55.4459 53.6968C55.0487 53.6968 54.7236 54.0378 54.7236 54.4547V59.0024C54.7236 59.4192 55.0487 59.7603 55.4459 59.7603H72.0587C72.456 59.7603 72.781 59.4192 72.781 59.0024V54.4547C72.781 54.0378 72.456 53.6968 72.0587 53.6968H55.4459ZM68.4473 96.5206H47.5007V29.8215H98.0614V62.4131C98.0614 62.83 98.3865 63.1711 98.7837 63.1711H103.84C104.237 63.1711 104.562 62.83 104.562 62.4131V26.0318C104.562 24.3548 103.271 23 101.673 23H43.8892C42.2911 23 41 24.3548 41 26.0318V100.31C41 101.987 42.2911 103.342 43.8892 103.342H68.4473C68.8445 103.342 69.1696 103.001 69.1696 102.584V97.2786C69.1696 96.8617 68.8445 96.5206 68.4473 96.5206ZM108.688 101.4L100.264 92.5604C102.278 89.7654 103.479 86.2789 103.479 82.4987C103.479 73.2896 96.364 65.8239 87.5881 65.8239C78.8122 65.8239 71.6976 73.2896 71.6976 82.4987C71.6976 91.7077 78.8122 99.1734 87.5881 99.1734C90.8204 99.1734 93.8179 98.1597 96.3279 96.4259L104.878 105.398C105.023 105.55 105.203 105.616 105.384 105.616C105.564 105.616 105.754 105.54 105.889 105.398L108.688 102.461C108.755 102.391 108.808 102.309 108.844 102.218C108.88 102.127 108.898 102.029 108.898 101.93C108.898 101.832 108.88 101.734 108.844 101.643C108.808 101.552 108.755 101.469 108.688 101.4ZM87.5881 93.1099C81.9994 93.1099 77.476 88.3633 77.476 82.4987C77.476 76.6341 81.9994 71.8874 87.5881 71.8874C93.1769 71.8874 97.7003 76.6341 97.7003 82.4987C97.7003 88.3633 93.1769 93.1099 87.5881 93.1099Z" fill="#27AE60"/>
<path d="M87.3018 1.20145C108.889 4.12087 131.468 10.6664 142.834 29.7964C154.337 49.1577 150.243 73.1771 142.75 94.5244C135.082 116.371 123.228 137.732 102.098 145.85C79.951 154.358 55.1299 149.191 35.4131 135.761C15.6552 122.302 1.80924 100.755 0.159117 76.4134C-1.4582 52.556 9.37396 29.5131 27.1693 14.1541C43.6836 -0.0992059 65.9406 -1.6874 87.3018 1.20145Z" fill="#2BAB6F" fill-opacity="0.1"/>
</svg>
