<svg width="20" height="16" viewBox="0 0 20 16" fill="none" xmlns="http://www.w3.org/2000/svg">
<path d="M20 1.88268C19.2645 2.19216 18.4641 2.41489 17.6397 2.50164C18.4956 2.00562 19.1366 1.22198 19.4424 0.297767C18.6392 0.763836 17.7593 1.09065 16.8417 1.26372C16.4582 0.863801 15.9944 0.545209 15.4792 0.327794C14.9639 0.110379 14.4083 -0.0011999 13.8469 9.7308e-06C11.5755 9.7308e-06 9.74883 1.79593 9.74883 3.9998C9.74883 4.30928 9.78729 4.61876 9.84978 4.91652C6.44874 4.74302 3.41546 3.15811 1.39887 0.731507C1.03143 1.3437 0.838874 2.04076 0.841245 2.75016C0.841245 4.13813 1.56472 5.36198 2.66795 6.08175C2.0178 6.05678 1.38287 5.88246 0.814806 5.57299V5.62222C0.814806 7.56585 2.22329 9.17655 4.10047 9.54699C3.74801 9.63629 3.38543 9.68198 3.02127 9.68297C2.75448 9.68297 2.5021 9.65718 2.24733 9.62202C2.76649 11.2069 4.27833 12.3581 6.0786 12.3956C4.67011 13.4718 2.9059 14.1048 0.990266 14.1048C0.646557 14.1048 0.329287 14.0931 0 14.0555C1.81709 15.1926 3.97308 15.8491 6.29492 15.8491C13.8325 15.8491 17.957 9.758 17.957 4.47105C17.957 4.29756 17.957 4.12406 17.945 3.95056C18.7429 3.38084 19.4424 2.67513 20 1.88268Z" fill="white"/>
</svg>
