<svg width="698" height="579" viewBox="0 0 698 579" fill="none" xmlns="http://www.w3.org/2000/svg">
<g clip-path="url(#clip0)">
<path d="M421.322 553.761C574.127 553.761 698 429.798 698 276.881C698 123.964 574.127 0 421.322 0C268.517 0 144.644 123.964 144.644 276.881C144.644 429.798 268.517 553.761 421.322 553.761Z" fill="#F2F2F2"/>
<path d="M676.489 543.369C676.489 554.848 525.052 579 338.244 579C151.437 579 0 554.848 0 543.369C0 531.89 151.437 537.431 338.244 537.431C525.052 537.431 676.489 531.89 676.489 543.369Z" fill="#3F3D56"/>
<path opacity="0.1" d="M676.489 543.369C676.489 554.848 525.052 579 338.244 579C151.437 579 0 554.848 0 543.369C0 531.89 151.437 537.431 338.244 537.431C525.052 537.431 676.489 531.89 676.489 543.369Z" fill="black"/>
<path d="M338.244 564.154C525.052 564.154 676.489 554.848 676.489 543.369C676.489 531.89 525.052 522.585 338.244 522.585C151.437 522.585 0 531.89 0 543.369C0 554.848 151.437 564.154 338.244 564.154Z" fill="#3F3D56"/>
<path d="M535.693 444.948C535.693 491.865 565.105 529.83 601.452 529.83L535.693 444.948Z" fill="#3F3D56"/>
<path d="M601.452 529.83C601.452 482.386 634.274 443.995 674.835 443.995L601.452 529.83Z" fill="#27AE60"/>
<path d="M559.519 449.202C559.519 493.768 578.274 529.83 601.452 529.83L559.519 449.202Z" fill="#27AE60"/>
<path d="M601.452 529.83C601.452 469.207 639.389 420.152 686.272 420.152L601.452 529.83Z" fill="#3F3D56"/>
<path d="M587.618 530.428C587.618 530.428 596.944 530.141 599.755 528.138C602.565 526.135 614.1 523.744 614.797 526.956C615.494 530.168 628.812 542.931 618.283 543.016C607.755 543.101 593.819 541.375 591.014 539.665C588.209 537.955 587.618 530.428 587.618 530.428Z" fill="#A8A8A8"/>
<path opacity="0.2" d="M618.471 541.898C607.942 541.983 594.007 540.257 591.202 538.547C589.066 537.245 588.215 532.572 587.93 530.416C587.732 530.425 587.618 530.428 587.618 530.428C587.618 530.428 588.209 537.955 591.014 539.665C593.819 541.375 607.755 543.101 618.283 543.016C621.322 542.992 622.372 541.91 622.315 540.307C621.892 541.275 620.733 541.88 618.471 541.898Z" fill="black"/>
<path d="M424.76 174.677C424.76 174.677 434.249 194.618 430.454 204.114C426.658 213.61 444.687 224.055 444.687 224.055L468.409 210.761V193.668L464.614 186.072C464.614 186.072 449.431 177.525 451.329 164.231C453.227 150.937 424.76 174.677 424.76 174.677Z" fill="#FFB9B9"/>
<path opacity="0.1" d="M424.76 174.677C424.76 174.677 434.249 194.618 430.454 204.114C426.658 213.61 444.687 224.055 444.687 224.055L468.409 210.761V193.668L464.614 186.072C464.614 186.072 449.431 177.525 451.329 164.231C453.227 150.937 424.76 174.677 424.76 174.677Z" fill="black"/>
<path d="M406.731 258.24C406.731 258.24 404.834 279.131 404.834 281.98C404.834 284.828 401.987 294.324 401.987 294.324C401.987 294.324 391.549 342.753 384.907 347.501C378.265 352.249 374.469 381.686 384.907 379.787C395.345 377.887 398.191 352.249 398.191 352.249L419.795 311.424L422.862 262.038L406.731 258.24Z" fill="#FFB9B9"/>
<path d="M414.322 216.458H406.731C406.731 216.458 399.14 262.038 406.731 263.938C414.322 265.837 428.556 265.837 428.556 265.837L414.322 216.458Z" fill="#575A89"/>
<path d="M457.022 509.88L460.818 527.922L468.409 522.224L464.613 506.081L457.022 508.93V509.88Z" fill="#FFB9B9"/>
<path d="M422.862 317.114L417.169 320.913C417.169 320.913 414.322 354.148 420.965 379.787C427.607 405.425 432.351 435.812 432.351 435.812C432.351 435.812 443.738 511.779 446.585 513.678C449.431 515.577 467.46 516.527 468.409 512.728C469.358 508.93 461.767 437.711 461.767 437.711C461.767 437.711 456.074 377.888 460.818 370.291C460.818 370.291 476 435.812 480.745 442.459C480.745 442.459 487.387 514.628 491.182 516.527C494.978 518.426 513.007 519.375 513.956 515.577C514.905 511.779 508.262 430.115 505.416 423.468C502.569 416.82 501.62 318.064 494.978 319.013C488.336 319.963 422.862 317.114 422.862 317.114Z" fill="#2F2E41"/>
<path d="M434.249 183.223C446.302 183.223 456.074 173.445 456.074 161.383C456.074 149.32 446.302 139.542 434.249 139.542C422.196 139.542 412.425 149.32 412.425 161.383C412.425 173.445 422.196 183.223 434.249 183.223Z" fill="#FFB9B9"/>
<path d="M442.789 209.811L438.045 201.265C438.045 201.265 432.351 193.668 429.505 195.568C426.658 197.467 426.658 204.114 426.658 204.114C426.658 204.114 404.834 211.711 406.731 222.156C408.629 232.601 420.965 250.643 420.965 250.643C420.965 250.643 422.862 265.837 420.965 269.635C419.067 273.433 415.271 276.282 418.118 280.081C420.965 283.879 421.914 284.828 420.965 289.576C420.016 294.324 418.118 296.223 420.016 298.123C421.914 300.022 419.067 319.963 417.169 320.913C415.271 321.862 477.898 331.358 482.642 328.509C487.387 325.661 500.671 325.661 499.722 322.812C498.773 319.963 494.978 302.871 494.978 300.022C494.978 297.173 494.978 284.828 494.029 283.879C493.08 282.929 494.978 268.686 494.978 268.686L490.233 228.803L505.416 205.063C505.416 205.063 501.62 191.769 483.591 189.87C465.562 187.971 460.575 183.223 460.575 183.223C460.575 183.223 458.92 191.769 455.125 193.668C451.329 195.568 442.789 209.811 442.789 209.811Z" fill="#575A89"/>
<path d="M512.058 235.45L517.751 278.181L505.416 339.904C505.416 339.904 500.671 375.039 491.182 374.089C481.693 373.14 491.182 336.106 491.182 336.106L498.773 278.181C498.773 278.181 486.438 248.744 489.285 244.946C492.131 241.148 512.058 235.45 512.058 235.45Z" fill="#FFB9B9"/>
<path d="M465.562 519.375C465.562 519.375 453.227 512.728 450.38 513.678C447.534 514.628 444.687 527.922 444.687 527.922C444.687 527.922 422.862 544.065 437.096 547.863C451.329 551.661 457.022 543.115 457.022 543.115C457.022 543.115 471.256 535.518 471.256 533.619C471.256 531.72 469.358 519.375 469.358 519.375H465.562Z" fill="#2F2E41"/>
<path d="M494.029 514.627C494.029 514.627 488.336 545.964 492.131 547.863C495.927 549.762 512.058 552.611 513.956 547.863C515.853 543.115 515.853 531.72 514.905 527.922C513.956 524.123 511.109 514.627 511.109 514.627H494.029Z" fill="#2F2E41"/>
<path d="M430.442 126.837C429.593 126.582 428.691 126.555 427.828 126.758C426.739 127.114 426.024 128.121 425.193 128.91C423.017 130.978 419.908 131.625 417.071 132.604C414.234 133.584 411.25 135.317 410.54 138.235C410.369 139.409 410.265 140.592 410.231 141.778C409.808 145.22 407.185 148.319 407.654 151.755C407.96 154 409.559 155.904 409.888 158.146C410.254 160.645 408.992 163.246 409.696 165.672C410.385 168.049 412.719 169.498 414.868 170.722C415.79 164.866 416.897 159.043 418.19 153.253C418.337 152.207 418.744 151.215 419.373 150.367C421.281 148.204 425.023 149.436 427.499 147.958C428.44 147.397 429.138 146.47 430.126 145.998C432.986 144.63 436.08 147.661 439.25 147.689C440.649 147.702 442.184 147.146 443.366 147.895C443.888 148.277 444.302 148.787 444.569 149.376C445.699 151.498 446.32 153.883 447.638 155.893C448.955 157.904 451.315 159.544 453.651 158.981C453.294 157.168 454.712 155.537 455.28 153.779C456.257 150.754 454.66 147.471 455.045 144.315C455.406 141.353 457.335 137.875 455.219 135.772C454.496 135.161 453.638 134.73 452.716 134.514C445.227 132.136 438.309 128.15 430.442 126.837Z" fill="#2F2E41"/>
<path d="M495.927 201.265L505.416 205.063C505.416 205.063 517.751 244.946 514.905 244.946C512.058 244.946 486.438 251.593 486.438 248.744C486.438 245.895 488.336 201.265 495.927 201.265Z" fill="#575A89"/>
<path d="M345.662 120.254H51.9235V216.754H63.0499V241.992L88.2699 216.754H345.662V120.254Z" fill="#3F3D56"/>
<path d="M345.662 380.061H51.9235V476.561H63.0499V501.8L88.2699 476.561H345.662V380.061Z" fill="#3F3D56"/>
<path d="M103.847 250.9H397.585V347.4H386.459V372.638L361.239 347.4H103.847V250.9Z" fill="#3F3D56"/>
<path opacity="0.3" d="M311.541 136.214H86.0447V145.121H311.541V136.214Z" fill="#6C63FF"/>
<path opacity="0.3" d="M198.793 153.287H86.0447V162.194H198.793V153.287Z" fill="#6C63FF"/>
<path opacity="0.3" d="M98.6547 200.794C105.619 200.794 111.265 195.145 111.265 188.175C111.265 181.206 105.619 175.556 98.6547 175.556C91.6904 175.556 86.0447 181.206 86.0447 188.175C86.0447 195.145 91.6904 200.794 98.6547 200.794Z" fill="#6C63FF"/>
<path d="M356.047 265.375H130.55V274.283H356.047V265.375Z" fill="#27AE60"/>
<path d="M243.299 282.448H130.55V291.356H243.299V282.448Z" fill="#27AE60"/>
<path d="M143.16 329.956C150.125 329.956 155.77 324.306 155.77 317.337C155.77 310.367 150.125 304.717 143.16 304.717C136.196 304.717 130.55 310.367 130.55 317.337C130.55 324.306 136.196 329.956 143.16 329.956Z" fill="#27AE60"/>
<path opacity="0.3" d="M311.541 396.021H86.0447V404.929H311.541V396.021Z" fill="#6C63FF"/>
<path opacity="0.3" d="M198.793 413.094H86.0447V422.002H198.793V413.094Z" fill="#6C63FF"/>
<path opacity="0.3" d="M98.6547 460.602C105.619 460.602 111.265 454.952 111.265 447.983C111.265 441.013 105.619 435.364 98.6547 435.364C91.6904 435.364 86.0447 441.013 86.0447 447.983C86.0447 454.952 91.6904 460.602 98.6547 460.602Z" fill="#6C63FF"/>
</g>
<defs>
<clipPath id="clip0">
<rect width="698" height="579" fill="white"/>
</clipPath>
</defs>
</svg>
