<svg width="150" height="150" viewBox="0 0 150 150" fill="none" xmlns="http://www.w3.org/2000/svg">
<path d="M87.3018 1.20145C108.889 4.12087 131.468 10.6664 142.834 29.7964C154.337 49.1577 150.243 73.1771 142.75 94.5244C135.082 116.371 123.228 137.732 102.098 145.85C79.951 154.358 55.1299 149.191 35.4131 135.761C15.6552 122.302 1.80924 100.755 0.159117 76.4134C-1.4582 52.556 9.37396 29.5131 27.1693 14.1541C43.6836 -0.099206 65.9406 -1.6874 87.3018 1.20145Z" fill="#DC5C66" fill-opacity="0.1"/>
<path d="M86.1338 36.4146H45.2268C43.8706 36.4146 42.57 36.9851 41.6111 38.0005C40.6521 39.0159 40.1134 40.3932 40.1134 41.8292V74.3167C40.1134 75.7528 40.6521 77.13 41.6111 78.1454C42.57 79.1609 43.8706 79.7313 45.2268 79.7313H60.5669V85.1459H52.8968V90.5605H78.4637V85.1459H70.7936V79.7313H86.1338C87.4899 79.7313 88.7905 79.1609 89.7495 78.1454C90.7084 77.13 91.2471 75.7528 91.2471 74.3167V41.8292C91.2471 40.3932 90.7084 39.0159 89.7495 38.0005C88.7905 36.9851 87.4899 36.4146 86.1338 36.4146ZM86.1338 74.3167H45.2268V41.8292H86.1338V74.3167Z" fill="#EB5757"/>
<g clip-path="url(#clip0)">
<path d="M103.521 54.0554H75.588C73.0276 54.0554 70.9326 56.2372 70.9326 58.9092V97.7397C70.9326 100.409 73.0276 102.593 75.588 102.593H103.521C106.083 102.593 108.176 100.409 108.176 97.7397V58.9092C108.176 56.2372 106.083 54.0554 103.521 54.0554ZM89.5543 100.167C87.9482 100.167 86.6447 99.0817 86.6447 97.7397C86.6447 96.3976 87.9482 95.3128 89.5543 95.3128C91.1581 95.3128 92.464 96.3976 92.464 97.7397C92.464 99.0817 91.1581 100.167 89.5543 100.167ZM103.521 92.8858H75.588V58.9092H103.521V92.8858Z" fill="#EB5757"/>
</g>
<defs>
<clipPath id="clip0">
<rect width="54.4327" height="57.6389" fill="white" transform="translate(65.6803 54.0554)"/>
</clipPath>
</defs>
</svg>
