<svg width="148" height="150" viewBox="0 0 148 150" fill="none" xmlns="http://www.w3.org/2000/svg">
<path d="M85.9442 1.20145C107.196 4.12087 129.423 10.6664 140.613 29.7964C151.938 49.1577 147.907 73.1771 140.53 94.5244C132.981 116.371 121.312 137.732 100.511 145.85C78.7077 154.358 54.2726 149.191 34.8625 135.761C15.4117 122.302 1.78111 100.755 0.156642 76.4134C-1.43553 52.556 9.22819 29.5131 26.7468 14.1541C43.0043 -0.099206 64.9152 -1.6874 85.9442 1.20145Z" fill="#4D8AF0" fill-opacity="0.1"/>
<path d="M106.953 59.9568L87.9632 80.1964L68.8247 59.8771C68.08 59.0803 67.174 58.6819 66.1066 58.6819C65.0392 58.6819 64.1332 59.0803 63.3885 59.8771C62.6438 60.674 62.2715 61.6434 62.2715 62.7856C62.2715 63.9277 62.6438 64.8972 63.3885 65.694L90.7185 94.619C93.0022 97.0626 94.1441 99.9844 94.1441 103.384C94.1441 106.784 93.0022 109.679 90.7185 112.07C88.4348 114.46 85.6919 115.655 82.4897 115.655C79.2876 115.655 76.5695 114.46 74.3354 112.07L46.9309 83.065C43.5054 79.3995 41.172 75.0966 39.9309 70.1563C38.6897 65.2159 38.6897 60.2888 39.9309 55.375C41.172 50.4612 43.5178 46.1583 46.9682 42.4663C50.4185 38.7744 54.4771 36.2776 59.1438 34.9761C63.8105 33.6746 68.4648 33.6746 73.1067 34.9761C77.7486 36.2776 81.8071 38.7876 85.2823 42.5062L87.9632 45.3748L91.4632 41.7094C92.5058 40.5938 93.9207 39.8102 95.7079 39.3587C97.4952 38.9072 99.4438 38.9603 101.554 39.5181C103.664 40.0758 105.463 41.1516 106.953 42.7452C109.286 45.242 110.465 48.1371 110.49 51.4307C110.515 54.7243 109.336 57.5663 106.953 59.9568ZM89.0802 59.5584L79.5482 49.3589C76.4702 46.0654 73.2432 43.8342 69.8673 42.6656C66.4914 41.4969 63.2892 41.3773 60.2608 42.307C57.2324 43.2366 54.4274 45.0826 51.8459 47.845C49.3636 50.5011 47.6756 53.4892 46.782 56.8093C45.8884 60.1295 45.8139 63.3699 46.5586 66.5307C47.3033 69.6915 48.7678 72.4671 50.9522 74.8576L79.5482 105.456C81.1369 107.156 82.7255 107.156 84.3142 105.456C85.9029 103.756 85.9029 102.056 84.3142 100.356L56.6863 70.7141C54.4026 68.2704 53.2608 65.3222 53.2608 61.8692C53.2608 58.4163 54.4026 55.4414 56.6863 52.9447C58.1757 51.4041 59.9505 50.3417 62.0108 49.7574C64.0711 49.173 66.0321 49.0801 67.8939 49.4785C69.7556 49.8769 71.2574 50.687 72.3992 51.9088L84.3142 64.6581C85.0589 65.455 85.8532 65.8534 86.6972 65.8534C87.5412 65.8534 88.3355 65.455 89.0802 64.6581C90.6689 62.9582 90.6689 61.2583 89.0802 59.5584Z" fill="#4D8AF0"/>
</svg>
